<svg width="185" height="48" viewBox="0 0 185 48" fill="none" xmlns="http://www.w3.org/2000/svg">
    <g id="headerLogo">
        <path d="M47.2902 23.79C47.2902 29.2269 45.405 34.4955 41.9559 38.6983C38.5068 42.901 33.7072 45.7778 28.3748 46.8385C23.0424 47.8992 17.5072 47.0781 12.7123 44.5152C7.91747 41.9523 4.15959 37.8061 2.07899 32.7831C-0.00159961 27.7601 -0.276171 22.1711 1.30206 16.9684C2.8803 11.7656 6.21368 7.27106 10.7343 4.2505C15.2548 1.22995 20.6829 -0.129706 26.0936 0.403198C31.5042 0.936101 36.5627 3.3286 40.4072 7.17303L37.8387 9.74152C34.5885 6.49133 30.3119 4.46864 25.7375 4.01811C21.1632 3.56757 16.5741 4.71707 12.7523 7.27073C8.93048 9.8244 6.11234 13.6242 4.77805 18.0228C3.44377 22.4213 3.6759 27.1465 5.43489 31.393C7.19389 35.6396 10.3709 39.1449 14.4246 41.3117C18.4784 43.4785 23.158 44.1726 27.6661 43.2759C32.1743 42.3792 36.2321 39.947 39.148 36.3939C42.064 32.8408 43.6578 28.3865 43.6578 23.79H47.2902Z"
              fill="white"/>
        <path d="M15.3059 39.0958C11.7648 37.1329 9.01386 34.003 7.52178 30.2392C6.02971 26.4755 5.88882 22.3108 7.12313 18.4548C8.35744 14.5988 10.8906 11.2901 14.2909 9.09244C17.6913 6.89477 21.7484 5.9441 25.7711 6.40243C29.7938 6.86076 33.5331 8.69972 36.352 11.606C39.1708 14.5122 40.8947 18.306 41.23 22.3408C41.5652 26.3756 40.4911 30.4018 38.1906 33.7335C35.8901 37.0651 32.5056 39.496 28.6137 40.612L27.8681 38.0118C31.1584 37.0683 34.0198 35.0132 35.9647 32.1965C37.9096 29.3798 38.8177 25.9759 38.5343 22.5648C38.2508 19.1536 36.7934 15.9463 34.4103 13.4893C32.0271 11.0322 28.8658 9.4775 25.4649 9.09002C22.064 8.70254 18.634 9.50626 15.7592 11.3642C12.8844 13.2222 10.7429 16.0195 9.69934 19.2795C8.65582 22.5394 8.77493 26.0604 10.0364 29.2424C11.2978 32.4243 13.6235 35.0705 16.6173 36.73L15.3059 39.0958Z"
              fill="white"/>
        <path d="M23.7902 11.29C26.6821 11.29 29.4846 12.2928 31.7201 14.1274C33.9556 15.962 35.4858 18.515 36.05 21.3514C36.6142 24.1878 36.1774 27.132 34.8142 29.6825C33.4509 32.233 31.2455 34.2318 28.5737 35.3385C25.9019 36.4452 22.929 36.5913 20.1616 35.7518C17.3942 34.9123 15.0035 33.1392 13.3968 30.7347C11.7901 28.3301 11.0669 25.4428 11.3504 22.5648C11.6338 19.6868 12.9064 16.9961 14.9513 14.9512L16.3175 16.3174C14.5887 18.0463 13.5128 20.321 13.2732 22.7542C13.0335 25.1874 13.645 27.6283 15.0033 29.6612C16.3616 31.6941 18.3828 33.1931 20.7225 33.9029C23.0621 34.6126 25.5755 34.4891 27.8343 33.5535C30.0931 32.6178 31.9577 30.9279 33.1102 28.7717C34.2627 26.6155 34.632 24.1263 34.155 21.7283C33.678 19.3304 32.3843 17.172 30.4944 15.621C28.6044 14.0699 26.2351 13.2222 23.7902 13.2222L23.7902 11.29Z"
              fill="white"/>
        <path d="M16.3202 19.7343C17.2585 18.0061 18.7671 16.6567 20.5888 15.916C22.4105 15.1754 24.4327 15.0893 26.3107 15.6725C28.1888 16.2556 29.8066 17.4719 30.8884 19.1141C31.9702 20.7563 32.4491 22.7229 32.2436 24.6786C32.038 26.6344 31.1607 28.4583 29.7611 29.8397C28.3615 31.2211 26.5262 32.0745 24.5679 32.2545C22.6096 32.4344 20.6495 31.9298 19.0216 30.8266C17.3937 29.7233 16.1987 28.0898 15.6402 26.2043L17.0174 25.7963C17.4815 27.3632 18.4746 28.7207 19.8274 29.6375C21.1802 30.5543 22.8091 30.9737 24.4365 30.8241C26.0638 30.6746 27.589 29.9654 28.7521 28.8175C29.9152 27.6695 30.6443 26.1537 30.8151 24.5285C30.9859 22.9032 30.5879 21.269 29.6889 19.9043C28.7899 18.5396 27.4455 17.5288 25.8848 17.0442C24.3241 16.5596 22.6436 16.6311 21.1298 17.2466C19.6159 17.8621 18.3622 18.9835 17.5825 20.4196L16.3202 19.7343Z"
              fill="white"/>
        <path d="M27.5097 26.3227C26.9238 27.1833 26.0576 27.8141 25.0587 28.1076C24.0598 28.4011 22.9901 28.3392 22.0318 27.9324C21.0734 27.5256 20.2858 26.7991 19.8031 25.8767C19.3203 24.9543 19.1723 23.893 19.3844 22.8737C19.5964 21.8544 20.1552 20.9402 20.9658 20.2868C21.7763 19.6334 22.7883 19.2812 23.8293 19.2903C24.8704 19.2994 25.8761 19.6692 26.6751 20.3366C27.4741 21.0041 28.0169 21.9279 28.2111 22.9508L27.3835 23.1079C27.2256 22.2765 26.7844 21.5256 26.135 20.9831C25.4856 20.4406 24.6682 20.14 23.822 20.1326C22.9758 20.1253 22.1532 20.4115 21.4945 20.9426C20.8357 21.4737 20.3814 22.2168 20.2091 23.0453C20.0368 23.8737 20.157 24.7363 20.5494 25.4861C20.9418 26.2358 21.582 26.8263 22.3609 27.157C23.1399 27.4876 24.0093 27.5379 24.8212 27.2994C25.6331 27.0608 26.3371 26.5481 26.8134 25.8486L27.5097 26.3227Z"
              fill="white"/>
        <path d="M22.9968 21.4192C23.5453 21.2357 24.1405 21.248 24.6809 21.4541C25.2213 21.6602 25.6736 22.0473 25.9606 22.5495C26.2476 23.0516 26.3516 23.6378 26.2549 24.208C26.1582 24.7783 25.8667 25.2973 25.4302 25.6768C24.9937 26.0563 24.4391 26.2726 23.861 26.289C23.2828 26.3054 22.7169 26.1209 22.2595 25.7668C21.8022 25.4127 21.4818 24.9109 21.3529 24.3471C21.224 23.7832 21.2947 23.1922 21.5527 22.6745L22.4295 23.1117C22.2725 23.4264 22.2296 23.7859 22.308 24.1288C22.3863 24.4717 22.5812 24.7768 22.8593 24.9921C23.1374 25.2075 23.4816 25.3197 23.8332 25.3098C24.1848 25.2998 24.522 25.1682 24.7875 24.9374C25.053 24.7067 25.2302 24.391 25.289 24.0442C25.3478 23.6974 25.2846 23.341 25.11 23.0356C24.9355 22.7302 24.6605 22.4948 24.3318 22.3695C24.0032 22.2442 23.6412 22.2367 23.3077 22.3483L22.9968 21.4192Z"
              fill="white"/>
        <circle cx="23.7902" cy="23.79" r="0.5" transform="rotate(-180 23.7902 23.79)" fill="white"/>
        <path d="M77.12 19.65C77.12 20.71 76.87 21.71 76.37 22.65C75.87 23.59 75.07 24.36 73.97 24.96C72.87 25.54 71.46 25.83 69.74 25.83H65.96V34.29H62.54V13.44H69.74C71.34 13.44 72.69 13.72 73.79 14.28C74.91 14.82 75.74 15.56 76.28 16.5C76.84 17.44 77.12 18.49 77.12 19.65ZM69.74 23.04C71.04 23.04 72.01 22.75 72.65 22.17C73.29 21.57 73.61 20.73 73.61 19.65C73.61 17.37 72.32 16.23 69.74 16.23H65.96V23.04H69.74ZM87.5518 34.56C85.9918 34.56 84.5818 34.21 83.3218 33.51C82.0618 32.79 81.0718 31.79 80.3518 30.51C79.6318 29.21 79.2718 27.71 79.2718 26.01C79.2718 24.33 79.6418 22.84 80.3818 21.54C81.1218 20.24 82.1318 19.24 83.4118 18.54C84.6918 17.84 86.1218 17.49 87.7018 17.49C89.2818 17.49 90.7118 17.84 91.9918 18.54C93.2718 19.24 94.2818 20.24 95.0218 21.54C95.7618 22.84 96.1318 24.33 96.1318 26.01C96.1318 27.69 95.7518 29.18 94.9918 30.48C94.2318 31.78 93.1918 32.79 91.8718 33.51C90.5718 34.21 89.1318 34.56 87.5518 34.56ZM87.5518 31.59C88.4318 31.59 89.2518 31.38 90.0118 30.96C90.7918 30.54 91.4218 29.91 91.9018 29.07C92.3818 28.23 92.6218 27.21 92.6218 26.01C92.6218 24.81 92.3918 23.8 91.9318 22.98C91.4718 22.14 90.8618 21.51 90.1018 21.09C89.3418 20.67 88.5218 20.46 87.6418 20.46C86.7618 20.46 85.9418 20.67 85.1818 21.09C84.4418 21.51 83.8518 22.14 83.4118 22.98C82.9718 23.8 82.7518 24.81 82.7518 26.01C82.7518 27.79 83.2018 29.17 84.1018 30.15C85.0218 31.11 86.1718 31.59 87.5518 31.59ZM102.933 20.16C103.433 19.32 104.093 18.67 104.913 18.21C105.753 17.73 106.743 17.49 107.883 17.49V21.03H107.013C105.673 21.03 104.653 21.37 103.953 22.05C103.273 22.73 102.933 23.91 102.933 25.59V34.29H99.5127V17.76H102.933V20.16ZM115.016 20.55V29.7C115.016 30.32 115.156 30.77 115.436 31.05C115.736 31.31 116.236 31.44 116.936 31.44H119.036V34.29H116.336C114.796 34.29 113.616 33.93 112.796 33.21C111.976 32.49 111.566 31.32 111.566 29.7V20.55H109.616V17.76H111.566V13.65H115.016V17.76H119.036V20.55H115.016ZM129.118 20.55H126.058V34.29H122.608V20.55H120.658V17.76H122.608V16.59C122.608 14.69 123.108 13.31 124.108 12.45C125.128 11.57 126.718 11.13 128.878 11.13V13.98C127.838 13.98 127.108 14.18 126.688 14.58C126.268 14.96 126.058 15.63 126.058 16.59V17.76H129.118V20.55ZM139.319 34.56C137.759 34.56 136.349 34.21 135.089 33.51C133.829 32.79 132.839 31.79 132.119 30.51C131.399 29.21 131.039 27.71 131.039 26.01C131.039 24.33 131.409 22.84 132.149 21.54C132.889 20.24 133.899 19.24 135.179 18.54C136.459 17.84 137.889 17.49 139.469 17.49C141.049 17.49 142.479 17.84 143.759 18.54C145.039 19.24 146.049 20.24 146.789 21.54C147.529 22.84 147.899 24.33 147.899 26.01C147.899 27.69 147.519 29.18 146.759 30.48C145.999 31.78 144.959 32.79 143.639 33.51C142.339 34.21 140.899 34.56 139.319 34.56ZM139.319 31.59C140.199 31.59 141.019 31.38 141.779 30.96C142.559 30.54 143.189 29.91 143.669 29.07C144.149 28.23 144.389 27.21 144.389 26.01C144.389 24.81 144.159 23.8 143.699 22.98C143.239 22.14 142.629 21.51 141.869 21.09C141.109 20.67 140.289 20.46 139.409 20.46C138.529 20.46 137.709 20.67 136.949 21.09C136.209 21.51 135.619 22.14 135.179 22.98C134.739 23.8 134.519 24.81 134.519 26.01C134.519 27.79 134.969 29.17 135.869 30.15C136.789 31.11 137.939 31.59 139.319 31.59ZM154.7 12.09V34.29H151.28V12.09H154.7ZM160.93 15.57C160.31 15.57 159.79 15.36 159.37 14.94C158.95 14.52 158.74 14 158.74 13.38C158.74 12.76 158.95 12.24 159.37 11.82C159.79 11.4 160.31 11.19 160.93 11.19C161.53 11.19 162.04 11.4 162.46 11.82C162.88 12.24 163.09 12.76 163.09 13.38C163.09 14 162.88 14.52 162.46 14.94C162.04 15.36 161.53 15.57 160.93 15.57ZM162.61 17.76V34.29H159.19V17.76H162.61ZM174.271 34.56C172.711 34.56 171.301 34.21 170.041 33.51C168.781 32.79 167.791 31.79 167.071 30.51C166.351 29.21 165.991 27.71 165.991 26.01C165.991 24.33 166.361 22.84 167.101 21.54C167.841 20.24 168.851 19.24 170.131 18.54C171.411 17.84 172.841 17.49 174.421 17.49C176.001 17.49 177.431 17.84 178.711 18.54C179.991 19.24 181.001 20.24 181.741 21.54C182.481 22.84 182.851 24.33 182.851 26.01C182.851 27.69 182.471 29.18 181.711 30.48C180.951 31.78 179.911 32.79 178.591 33.51C177.291 34.21 175.851 34.56 174.271 34.56ZM174.271 31.59C175.151 31.59 175.971 31.38 176.731 30.96C177.511 30.54 178.141 29.91 178.621 29.07C179.101 28.23 179.341 27.21 179.341 26.01C179.341 24.81 179.111 23.8 178.651 22.98C178.191 22.14 177.581 21.51 176.821 21.09C176.061 20.67 175.241 20.46 174.361 20.46C173.481 20.46 172.661 20.67 171.901 21.09C171.161 21.51 170.571 22.14 170.131 22.98C169.691 23.8 169.471 24.81 169.471 26.01C169.471 27.79 169.921 29.17 170.821 30.15C171.741 31.11 172.891 31.59 174.271 31.59Z"
              fill="white"/>
    </g>
    <g id="figmaLogo">
        <g clip-path="url(#clip0_4533_1212)">
            <path d="M76.5625 0H23.4375C10.4933 0 0 10.4933 0 23.4375V76.5625C0 89.5067 10.4933 100 23.4375 100H76.5625C89.5067 100 100 89.5067 100 76.5625V23.4375C100 10.4933 89.5067 0 76.5625 0Z"
                  fill="#F4F2ED"/>
            <mask id="mask0_4533_1212" style="mask-type:luminance" maskUnits="userSpaceOnUse" x="23" y="10" width="53"
                  height="80">
                <path d="M23.8281 10.9375H75.9219V89.0625H23.8281V10.9375Z" fill="white"/>
            </mask>
            <g mask="url(#mask0_4533_1212)">
                <path d="M36.8543 89.0625C44.0418 89.0625 49.875 83.2293 49.875 76.0418V63.0207H36.8543C29.6668 63.0207 23.8333 68.8543 23.8333 76.0418C23.8333 83.2293 29.6668 89.0625 36.8543 89.0625Z"
                      fill="#0ACF83"/>
                <path d="M23.8333 50C23.8333 42.8125 29.6668 36.9793 36.8543 36.9793H49.875V63.0207H36.8543C29.6668 63.0207 23.8333 57.1875 23.8333 50Z"
                      fill="#A259FF"/>
                <path d="M23.8333 23.9582C23.8333 16.7707 29.6668 10.9375 36.8543 10.9375H49.875V36.9793H36.8543C29.6668 36.9793 23.8333 31.1457 23.8333 23.9582Z"
                      fill="#F24E1E"/>
                <path d="M49.875 10.9375H62.8957C70.0832 10.9375 75.9168 16.7707 75.9168 23.9582C75.9168 31.1457 70.0832 36.9793 62.8957 36.9793H49.875V10.9375Z"
                      fill="#FF7262"/>
                <path d="M75.9168 50C75.9168 57.1875 70.0832 63.0207 62.8957 63.0207C55.7082 63.0207 49.875 57.1875 49.875 50C49.875 42.8125 55.7082 36.9793 62.8957 36.9793C70.0832 36.9793 75.9168 42.8125 75.9168 50Z"
                      fill="#1ABCFE"/>
            </g>
        </g>
        <defs>
            <clipPath id="clip0_4533_1212">
                <rect width="100" height="100" fill="white"/>
            </clipPath>
        </defs>
    </g>
    <g id="HeaderGitHub">
        <path fill-rule="evenodd" clip-rule="evenodd"
              d="M17.5001 1.09375C8.2342 1.09375 0.729248 8.5987 0.729248 17.8646C0.729248 25.2857 5.5299 31.5538 12.1963 33.7759C13.0348 33.9227 13.3493 33.4195 13.3493 32.9793C13.3493 32.581 13.3283 31.2603 13.3283 29.8557C9.11467 30.6314 8.02456 28.8285 7.68914 27.8852C7.50047 27.403 6.68289 25.9146 5.97013 25.5163C5.38315 25.2018 4.54461 24.4262 5.94917 24.4052C7.26987 24.3842 8.21323 25.6211 8.52768 26.1242C10.0371 28.6608 12.4479 27.948 13.4122 27.5078C13.5589 26.4177 13.9992 25.684 14.4813 25.2647C10.7498 24.8454 6.8506 23.399 6.8506 16.9841C6.8506 15.1603 7.50047 13.6509 8.56961 12.477C8.4019 12.0577 7.81492 10.3387 8.73732 8.03268C8.73732 8.03268 10.1419 7.59245 13.3493 9.75169C14.691 9.37435 16.1165 9.18568 17.542 9.18568C18.9675 9.18568 20.393 9.37435 21.7347 9.75169C24.9421 7.57148 26.3467 8.03268 26.3467 8.03268C27.2691 10.3387 26.6821 12.0577 26.5144 12.477C27.5835 13.6509 28.2334 15.1393 28.2334 16.9841C28.2334 23.4199 24.3132 24.8454 20.5817 25.2647C21.1897 25.7888 21.7138 26.7951 21.7138 28.3673C21.7138 30.6104 21.6928 32.4133 21.6928 32.9793C21.6928 33.4195 22.0072 33.9436 22.8458 33.7759C29.4703 31.5538 34.2709 25.2647 34.2709 17.8646C34.2709 8.5987 26.766 1.09375 17.5001 1.09375V1.09375Z"
              fill="white"/>
    </g>
    <g id="HeaderTelegram">
        <path d="M32.1586 0.340967L1.1503 12.5808C-0.0975299 13.1508 -0.519581 14.2923 0.8487 14.9118L8.80368 17.4995L28.0378 5.33177C29.088 4.5679 30.1632 4.77159 29.238 5.6119L12.7185 20.9224L12.1996 27.4017C12.6802 28.4021 13.5603 28.4068 14.1216 27.9095L18.692 23.4829L26.5195 29.4827C28.3375 30.5844 29.3267 29.8734 29.7179 27.8541L34.852 2.96937C35.3851 0.483814 34.476 -0.611346 32.1586 0.340967Z"
              fill="white"/>

    </g>
    <g id="gitLogo">
        <g clip-path="url(#clip0_4533_1197)">
            <path d="M76.5625 0H23.4375C10.4933 0 0 10.4933 0 23.4375V76.5625C0 89.5067 10.4933 100 23.4375 100H76.5625C89.5067 100 100 89.5067 100 76.5625V23.4375C100 10.4933 89.5067 0 76.5625 0Z"
                  fill="#F03C2E"/>
            <mask id="mask0_4533_1197" style="mask-type:luminance" maskUnits="userSpaceOnUse" x="10" y="10" width="80"
                  height="80">
                <path d="M10.9375 10.9375H89.0625V89.0625H10.9375V10.9375Z" fill="white"/>
            </mask>
            <g mask="url(#mask0_4533_1197)">
                <path d="M87.5875 46.5211L53.4786 12.4121C52.7753 11.7081 51.8789 11.2286 50.903 11.0343C49.927 10.8401 48.9153 10.9399 47.9961 11.3211C47.3858 11.5741 46.8314 11.9448 46.3645 12.4121L39.2844 19.4922L48.2688 28.4766C50.3586 27.7442 52.7512 28.2446 54.416 29.9098C55.2086 30.7038 55.7619 31.7048 56.0127 32.7982C56.2635 33.8917 56.2017 35.0337 55.8344 36.0938L64.4942 44.7535C66.5891 44.0309 69.0059 44.4969 70.6782 46.1743C71.5158 47.0116 72.0862 48.0786 72.3171 49.2403C72.5481 50.4019 72.4291 51.606 71.9754 52.7C71.3671 54.1668 70.2013 55.332 68.7342 55.9395C67.267 56.5469 65.6187 56.5469 64.1516 55.9395C63.425 55.6383 62.7649 55.1973 62.209 54.641C60.4512 52.8832 60.0168 50.2953 60.9055 48.1297L52.8293 40.0536V61.3063C53.4156 61.5963 53.9513 61.9788 54.416 62.4391C55.5388 63.5619 56.1696 65.0847 56.1696 66.6725C56.1696 68.2603 55.5388 69.7831 54.416 70.9059C53.2933 72.0287 51.7705 72.6594 50.1827 72.6594C48.5948 72.6594 47.072 72.0287 45.9493 70.9059C45.1112 70.069 44.5405 69.0022 44.3092 67.8406C44.0779 66.6791 44.1965 65.475 44.65 64.3809C44.9511 63.6544 45.3926 62.9946 45.9493 62.4391C46.5278 61.8629 47.17 61.4258 47.9098 61.1328V39.6825C47.1757 39.3823 46.5091 38.9383 45.9493 38.3766C45.1087 37.5369 44.5372 36.4659 44.3076 35.3001C44.078 34.1343 44.2008 32.9266 44.6602 31.8309L35.7981 22.9739L12.4094 46.3379C11.7053 47.0415 11.2257 47.9382 11.0314 48.9145C10.8371 49.8907 10.9367 50.9027 11.3176 51.8223C11.5708 52.4329 11.9418 52.9876 12.4094 53.4547L46.5207 87.561C46.9877 88.0282 47.5422 88.3989 48.1524 88.652C49.3853 89.1623 50.7703 89.1623 52.0032 88.652C52.6134 88.3989 53.1678 88.0282 53.6348 87.561L87.5875 53.6621C88.055 53.195 88.4259 52.6403 88.679 52.0298C88.932 51.4192 89.0624 50.7648 89.0625 50.1039C89.0626 49.443 88.9323 48.7884 88.6792 48.1778C88.4261 47.5672 88.0552 47.0125 87.5875 46.5453"
                      fill="white"/>
            </g>
        </g>
        <defs>
            <clipPath id="clip0_4533_1197">
                <rect width="100" height="100" fill="white"/>
            </clipPath>
        </defs>
    </g>
    <g id="HeaderLinkedIn">
        <rect width="32" height="32" rx="3" fill="white"/>
        <path d="M6.33333 2.5C4.76853 2.5 3.5 3.76853 3.5 5.33333C3.5 6.89814 4.76853 8.16667 6.33333 8.16667C7.89814 8.16667 9.16667 6.89814 9.16667 5.33333C9.16667 3.76853 7.89814 2.5 6.33333 2.5Z"
              fill="black"/>
        <path d="M3.66667 10.5C3.57462 10.5 3.5 10.5746 3.5 10.6667V28C3.5 28.092 3.57462 28.1667 3.66667 28.1667H9C9.09205 28.1667 9.16667 28.092 9.16667 28V10.6667C9.16667 10.5746 9.09205 10.5 9 10.5H3.66667Z"
              fill="black"/>
        <path d="M12.3333 10.5C12.2413 10.5 12.1667 10.5746 12.1667 10.6667V28C12.1667 28.092 12.2413 28.1667 12.3333 28.1667H17.6667C17.7587 28.1667 17.8333 28.092 17.8333 28V18.6667C17.8333 18.0036 18.0967 17.3677 18.5656 16.8989C19.0344 16.4301 19.6703 16.1667 20.3333 16.1667C20.9964 16.1667 21.6323 16.4301 22.1011 16.8989C22.5699 17.3677 22.8333 18.0036 22.8333 18.6667V28C22.8333 28.092 22.908 28.1667 23 28.1667H28.3333C28.4254 28.1667 28.5 28.092 28.5 28V16.507C28.5 13.2713 25.6859 10.74 22.4665 11.0327C21.4736 11.1229 20.4919 11.3697 19.5753 11.7626L17.8333 12.5091V10.6667C17.8333 10.5746 17.7587 10.5 17.6667 10.5H12.3333Z"
              fill="black"/>
    </g>
    <g>
        <path d="M36.7527 0.38643L1.31463 14.2583C-0.111463 14.9043 -0.593806 16.1979 0.969943 16.9L10.0613 19.8328L32.0432 6.04267C33.2434 5.17696 34.4722 5.4078 33.4148 6.36015L14.5354 23.712L13.9424 31.0553C14.4917 32.1891 15.4974 32.1944 16.139 31.6308L21.3623 26.6139L30.308 33.4137C32.3857 34.6623 33.5163 33.8565 33.9633 31.568L39.8309 3.36528C40.4401 0.548323 39.4012 -0.692859 36.7527 0.38643Z"
              fill="white"/>
    </g>
    <g id="gitHubSkill">
        <path d="M33.7891 69.7917C33.9627 69.5312 33.8976 69.2491 33.5938 68.9453C33.2031 68.6415 32.8993 68.5981 32.6823 68.8151C32.5087 69.0755 32.5738 69.3576 32.8776 69.6615C33.2682 69.9653 33.572 70.0087 33.7891 69.7917ZM31.9661 67.1224C31.7491 66.8186 31.4887 66.7318 31.1849 66.862C30.9245 67.0356 30.9245 67.296 31.1849 67.6432C31.4887 67.9904 31.7491 68.099 31.9661 67.9688C32.2266 67.7951 32.2266 67.513 31.9661 67.1224ZM29.2969 64.5182C29.3837 64.3446 29.2752 64.171 28.9714 63.9974C28.6675 63.9106 28.4939 63.954 28.4505 64.1276C28.3203 64.3446 28.4071 64.5182 28.7109 64.6484C29.0582 64.7352 29.2535 64.6918 29.2969 64.5182ZM30.6641 66.0156C30.7509 65.9722 30.7834 65.8746 30.7617 65.7227C30.74 65.5707 30.6641 65.4514 30.5339 65.3646C30.2734 65.0608 30.0564 64.9957 29.8828 65.1693C29.7092 65.3429 29.7309 65.5816 29.9479 65.8854C30.2083 66.1458 30.447 66.1892 30.6641 66.0156ZM36.263 70.8984C36.3498 70.5946 36.1545 70.3559 35.6771 70.1823C35.2865 70.0521 35.0043 70.1389 34.8307 70.4427C34.7439 70.7465 34.9392 70.9852 35.4167 71.1589C35.8073 71.2891 36.0894 71.2023 36.263 70.8984ZM38.9974 71.0938C38.9974 70.7465 38.737 70.5729 38.2161 70.5729C37.7821 70.5729 37.5651 70.7465 37.5651 71.0938C37.5651 71.441 37.8038 71.6146 38.2812 71.6146C38.7587 71.6146 38.9974 71.441 38.9974 71.0938ZM41.5365 70.638C41.4496 70.3342 41.1675 70.2257 40.6901 70.3125C40.2127 70.3993 40.0174 70.5946 40.1042 70.8984C40.191 71.2457 40.4514 71.3759 40.8854 71.2891C41.3194 71.2023 41.5365 70.9852 41.5365 70.638ZM83.3333 50C83.3333 40.7986 80.0781 32.9427 73.5677 26.4323C67.0573 19.9219 59.2014 16.6667 50 16.6667C40.7986 16.6667 32.9427 19.9219 26.4323 26.4323C19.9219 32.9427 16.6667 40.7986 16.6667 50C16.6667 57.2483 18.7934 63.7695 23.0469 69.5638C27.3003 75.3581 32.7691 79.3837 39.4531 81.6406C40.2344 81.7708 40.8095 81.6623 41.1784 81.3151C41.5473 80.9679 41.7318 80.5339 41.7318 80.013C41.7318 77.7561 41.7101 75.6944 41.6667 73.8281C41.4062 73.8715 41.0699 73.9258 40.6576 73.9909C40.2452 74.056 39.4748 74.0994 38.3464 74.1211C37.2179 74.1428 36.1762 74.056 35.2214 73.8607C34.2665 73.6654 33.3225 73.2313 32.3893 72.5586C31.4562 71.8858 30.816 70.9852 30.4687 69.8568C29.4705 67.296 28.2335 65.6901 26.7578 65.0391C26.671 64.9957 26.5733 64.9197 26.4648 64.8112L25.944 64.2904L25.4883 63.6719L25.7487 63.1836L27.0182 62.9557C27.2786 62.9557 27.6042 62.9991 27.9948 63.0859C28.3854 63.1727 29.0365 63.5091 29.9479 64.095C30.8594 64.681 31.5755 65.4514 32.0964 66.4062C32.7908 67.6215 33.6046 68.533 34.5378 69.1406C35.4709 69.7483 36.4149 70.0521 37.3698 70.0521C38.3246 70.0521 39.1493 69.9761 39.8438 69.8242C40.5382 69.6723 41.1892 69.4661 41.7969 69.2057C42.1007 67.1658 42.8168 65.6684 43.9453 64.7135C41.8186 64.4531 39.9523 64.0516 38.3464 63.5091C36.7405 62.9666 35.1562 62.1202 33.5938 60.9701C32.0312 59.8199 30.8268 58.1706 29.9805 56.0221C29.1341 53.8737 28.7109 51.2804 28.7109 48.2422C28.7109 44.8134 29.8611 41.8403 32.1615 39.3229C31.1198 36.6319 31.2283 33.6806 32.487 30.4687C33.3116 30.2083 34.4944 30.3711 36.0352 30.957C37.576 31.543 38.8889 32.1832 39.974 32.8776L41.6667 33.9193C44.184 33.1814 46.9618 32.8125 50 32.8125C53.0382 32.8125 55.816 33.1814 58.3333 33.9193C58.8108 33.6155 59.4293 33.2248 60.1888 32.7474C60.9483 32.27 62.1528 31.7057 63.8021 31.0547C65.4514 30.4036 66.6884 30.2083 67.513 30.4687C68.7717 33.6806 68.8802 36.6319 67.8385 39.3229C70.1389 41.8403 71.2891 44.8134 71.2891 48.2422C71.2891 50.7161 70.9852 52.8971 70.3776 54.7852C69.77 56.6732 68.9996 58.1923 68.0664 59.3424C67.1332 60.4926 65.9722 61.4583 64.5833 62.2396C63.1944 63.0208 61.8381 63.5851 60.5143 63.9323C59.1905 64.2795 57.704 64.5399 56.0547 64.7135C57.5738 66.059 58.3333 68.1207 58.3333 70.8984C58.3333 72.6345 58.3225 74.566 58.3008 76.6927C58.2791 78.8194 58.2682 79.9262 58.2682 80.013C58.2682 80.5339 58.4527 80.9679 58.8216 81.3151C59.1905 81.6623 59.7656 81.7708 60.5469 81.6406C67.2309 79.3837 72.6997 75.3581 76.9531 69.5638C81.2066 63.7695 83.3333 57.2483 83.3333 50ZM100 18.75V81.25C100 86.4149 98.1662 90.8312 94.4987 94.4987C90.8312 98.1662 86.4149 100 81.25 100H18.75C13.5851 100 9.16884 98.1662 5.5013 94.4987C1.83377 90.8312 0 86.4149 0 81.25V18.75C0 13.5851 1.83377 9.16884 5.5013 5.5013C9.16884 1.83377 13.5851 0 18.75 0H81.25C86.4149 0 90.8312 1.83377 94.4987 5.5013C98.1662 9.16884 100 13.5851 100 18.75Z"
              fill="white"/>
    </g>
    <g id="circle">
        <circle cx="12.5" cy="12.5" r="12.5" fill="white"/>
    </g>
    <g id="footerGitHub">
        <path fill-rule="evenodd" clip-rule="evenodd"
              d="M17.5001 1.09375C8.2342 1.09375 0.729248 8.5987 0.729248 17.8646C0.729248 25.2857 5.5299 31.5538 12.1963 33.7759C13.0348 33.9227 13.3493 33.4195 13.3493 32.9793C13.3493 32.581 13.3283 31.2603 13.3283 29.8557C9.11467 30.6314 8.02456 28.8285 7.68914 27.8852C7.50047 27.403 6.68289 25.9146 5.97013 25.5163C5.38315 25.2018 4.54461 24.4262 5.94917 24.4052C7.26987 24.3842 8.21323 25.6211 8.52768 26.1242C10.0371 28.6608 12.4479 27.948 13.4122 27.5078C13.5589 26.4177 13.9992 25.684 14.4813 25.2647C10.7498 24.8454 6.8506 23.399 6.8506 16.9841C6.8506 15.1603 7.50047 13.6509 8.56961 12.477C8.4019 12.0577 7.81492 10.3387 8.73732 8.03268C8.73732 8.03268 10.1419 7.59245 13.3493 9.75169C14.691 9.37435 16.1165 9.18568 17.542 9.18568C18.9675 9.18568 20.393 9.37435 21.7347 9.75169C24.9421 7.57148 26.3467 8.03268 26.3467 8.03268C27.2691 10.3387 26.6821 12.0577 26.5144 12.477C27.5835 13.6509 28.2334 15.1393 28.2334 16.9841C28.2334 23.4199 24.3132 24.8454 20.5817 25.2647C21.1897 25.7888 21.7138 26.7951 21.7138 28.3673C21.7138 30.6104 21.6928 32.4133 21.6928 32.9793C21.6928 33.4195 22.0072 33.9436 22.8458 33.7759C29.4703 31.5538 34.2709 25.2647 34.2709 17.8646C34.2709 8.5987 26.766 1.09375 17.5001 1.09375Z"
              fill="white"/>
    </g>
    <g id="footerLinkedIn">
        <rect width="35" height="35" rx="3" fill="white"/>
        <path d="M6.92708 2.73438C5.21558 2.73438 3.82812 4.12183 3.82812 5.83333C3.82812 7.54484 5.21558 8.93229 6.92708 8.93229C8.63859 8.93229 10.026 7.54484 10.026 5.83333C10.026 4.12183 8.63859 2.73438 6.92708 2.73438Z"
              fill="black"/>
        <path d="M4.01042 11.4844C3.90974 11.4844 3.82812 11.566 3.82812 11.6667V30.625C3.82812 30.7257 3.90974 30.8073 4.01042 30.8073H9.84375C9.94443 30.8073 10.026 30.7257 10.026 30.625V11.6667C10.026 11.566 9.94443 11.4844 9.84375 11.4844H4.01042Z"
              fill="black"/>
        <path d="M13.4896 11.4844C13.3889 11.4844 13.3073 11.566 13.3073 11.6667V30.625C13.3073 30.7257 13.3889 30.8073 13.4896 30.8073H19.3229C19.4236 30.8073 19.5052 30.7257 19.5052 30.625V20.4167C19.5052 19.6915 19.7933 18.996 20.3061 18.4832C20.8189 17.9704 21.5144 17.6823 22.2396 17.6823C22.9648 17.6823 23.6603 17.9704 24.1731 18.4832C24.6859 18.996 24.974 19.6915 24.974 20.4167V30.625C24.974 30.7257 25.0556 30.8073 25.1562 30.8073H30.9896C31.0903 30.8073 31.1719 30.7257 31.1719 30.625V18.0545C31.1719 14.5155 28.0939 11.7469 24.5727 12.067C23.4867 12.1657 22.4131 12.4357 21.4105 12.8653L19.5052 13.6819V11.6667C19.5052 11.566 19.4236 11.4844 19.3229 11.4844H13.4896Z"
              fill="black"/>
    </g>
    <g id="footerTelegram">
        <path d="M36.7527 0.38643L1.31463 14.2583C-0.111463 14.9043 -0.593806 16.1979 0.969943 16.9L10.0613 19.8328L32.0432 6.04268C33.2434 5.17696 34.4722 5.4078 33.4148 6.36015L14.5354 23.712L13.9424 31.0553C14.4917 32.1891 15.4974 32.1944 16.139 31.6308L21.3623 26.6139L30.308 33.4137C32.3857 34.6623 33.5163 33.8565 33.9633 31.568L39.8309 3.36528C40.4401 0.548323 39.4012 -0.692859 36.7527 0.38643Z"
              fill="white"/>

    </g>
    <g id="backgroundImg">
        <svg width="668" height="668" viewBox="0 0 668 668" fill="none" xmlns="http://www.w3.org/2000/svg">
            <g opacity="0.5">
                <path d="M590.154 436.461L513.308 359.615" stroke="#505685"/>
                <path d="M667 359.615L590.154 282.769" stroke="url(#paint0_linear_4533_754)"/>
                <path d="M513.308 359.615L590.154 282.769" stroke="#505685"/>
                <path d="M590.154 436.461L667 359.615" stroke="#505685"/>
                <path d="M513.308 359.615L410.846 257.153" stroke="#505685"/>
                <path d="M590.154 282.769L487.693 180.307" stroke="url(#paint1_linear_4533_754)"/>
                <path d="M410.846 257.153L487.693 180.307" stroke="#505685"/>
                <path d="M513.308 359.615L590.154 282.769" stroke="url(#paint2_linear_4533_754)"/>
                <path d="M308.385 1L385.231 77.8462" stroke="#505685"/>
                <path d="M231.539 77.8459L308.385 154.692" stroke="#505685"/>
                <path d="M385.231 77.8459L308.385 154.692" stroke="#505685"/>
                <path d="M308.385 1L231.539 77.8461" stroke="#505685"/>
                <path d="M385.231 77.8459L487.693 180.307" stroke="url(#paint3_linear_4533_754)"/>
                <path d="M308.385 154.692L410.846 257.154" stroke="#505685"/>
                <path d="M385.231 77.8459L308.385 154.692" stroke="#505685"/>
                <path d="M410.846 257.154L487.693 334" stroke="#505685"/>
                <path d="M334 334L410.846 410.846" stroke="#505685"/>
                <path d="M487.693 334L410.846 410.846" stroke="#505685"/>
                <path d="M487.692 334L590.154 436.462" stroke="#505685"/>
                <path d="M410.846 410.846L513.308 513.308" stroke="#505685"/>
                <path d="M590.154 436.461L513.308 513.308" stroke="url(#paint4_linear_4533_754)"/>
                <path d="M487.692 334L410.846 410.846" stroke="#505685"/>
                <path d="M334 334L257.154 257.154" stroke="#505685"/>
                <path d="M410.847 257.154L334.001 180.308" stroke="#505685"/>
                <path d="M257.154 257.154L334 180.308" stroke="#505685"/>
                <path d="M257.154 257.154L154.693 154.692" stroke="#505685"/>
                <path d="M334 180.307L231.539 77.8458" stroke="#505685"/>
                <path d="M154.693 154.692L231.539 77.846" stroke="url(#paint5_linear_4533_754)"/>
                <path d="M257.154 257.154L334 180.308" stroke="#505685"/>
                <path d="M436.461 590.154L359.615 513.308" stroke="#505685"/>
                <path d="M513.308 513.308L436.461 436.462" stroke="#505685"/>
                <path d="M359.615 513.308L436.461 436.462" stroke="#505685"/>
                <path d="M436.461 590.154L513.307 513.308" stroke="#505685"/>
                <path d="M359.615 513.308L257.153 410.847" stroke="#505685"/>
                <path d="M436.461 436.462L333.999 334" stroke="#505685"/>
                <path d="M257.154 410.847L334 334.001" stroke="#505685"/>
                <path d="M359.615 513.308L436.461 436.462" stroke="url(#paint6_linear_4533_754)"/>
                <path d="M154.692 154.693L231.539 231.539" stroke="#505685"/>
                <path d="M77.8462 231.539L154.692 308.385" stroke="#505685"/>
                <path d="M231.539 231.539L154.692 308.385" stroke="#505685"/>
                <path d="M154.692 154.693L77.8462 231.539" stroke="#505685"/>
                <path d="M231.539 231.539L334 334" stroke="url(#paint7_linear_4533_754)"/>
                <path d="M154.693 308.385L257.154 410.846" stroke="#505685"/>
                <path d="M231.539 231.539L154.693 308.385" stroke="#505685"/>
                <path d="M257.154 410.847L334 487.693" stroke="#505685"/>
                <path d="M180.308 487.693L257.154 564.539" stroke="#505685"/>
                <path d="M334 487.693L257.154 564.539" stroke="#505685"/>
                <path d="M334 487.693L436.462 590.154" stroke="url(#paint8_linear_4533_754)"/>
                <path d="M257.154 564.539L359.616 667" stroke="url(#paint9_linear_4533_754)"/>
                <path d="M436.462 590.154L359.616 667" stroke="#505685"/>
                <path d="M334 487.693L257.154 564.539" stroke="#505685"/>
                <path d="M180.308 487.693L103.461 410.847" stroke="#505685"/>
                <path d="M257.154 410.847L180.308 334.001" stroke="#505685"/>
                <path d="M103.462 410.847L180.308 334.001" stroke="#505685"/>
                <path d="M103.462 410.847L1.00012 308.385" stroke="#505685"/>
                <path d="M180.308 334.001L77.8461 231.539" stroke="#505685"/>
                <path d="M1.00024 308.385L77.8464 231.539" stroke="#505685"/>
                <path d="M103.462 410.847L180.308 334.001" stroke="url(#paint10_linear_4533_754)"/>
            </g>
            <defs>
                <linearGradient id="paint0_linear_4533_754" x1="667" y1="339.83" x2="614.334" y2="305.067" gradientUnits="userSpaceOnUse">
                    <stop stop-color="#505685"/>
                    <stop offset="1" stop-color="#FF6B00"/>
                </linearGradient>
                <linearGradient id="paint1_linear_4533_754" x1="588.84" y1="282.769" x2="466.281" y2="232.197" gradientUnits="userSpaceOnUse">
                    <stop stop-color="#FF6B00"/>
                    <stop offset="1" stop-color="#505685"/>
                </linearGradient>
                <linearGradient id="paint2_linear_4533_754" x1="533.093" y1="359.615" x2="567.856" y2="306.948" gradientUnits="userSpaceOnUse">
                    <stop stop-color="#505685"/>
                    <stop offset="1" stop-color="#FF6B00"/>
                </linearGradient>
                <linearGradient id="paint3_linear_4533_754" x1="385.231" y1="104.226" x2="455.453" y2="150.576" gradientUnits="userSpaceOnUse">
                    <stop stop-color="#505685"/>
                    <stop offset="0.421875" stop-color="#FF6B00"/>
                    <stop offset="1" stop-color="#505685"/>
                </linearGradient>
                <linearGradient id="paint4_linear_4533_754" x1="570.369" y1="436.461" x2="535.606" y2="489.128" gradientUnits="userSpaceOnUse">
                    <stop stop-color="#505685"/>
                    <stop offset="0.0001" stop-color="#505685"/>
                    <stop offset="0.317708" stop-color="#FF6B00"/>
                    <stop offset="1" stop-color="#505685"/>
                </linearGradient>
                <linearGradient id="paint5_linear_4533_754" x1="154.693" y1="154.692" x2="192.267" y2="61.9373" gradientUnits="userSpaceOnUse">
                    <stop stop-color="#505685"/>
                    <stop offset="0.494792" stop-color="#FF6B00"/>
                    <stop offset="1" stop-color="#505685"/>
                </linearGradient>
                <linearGradient id="paint6_linear_4533_754" x1="379.4" y1="513.308" x2="414.163" y2="460.642" gradientUnits="userSpaceOnUse">
                    <stop stop-color="#FF6B00"/>
                    <stop offset="0.234375" stop-color="#505685"/>
                </linearGradient>
                <linearGradient id="paint7_linear_4533_754" x1="257.483" y1="257.811" x2="347.977" y2="294.701" gradientUnits="userSpaceOnUse">
                    <stop stop-color="#505685"/>
                    <stop offset="0.75" stop-color="#FF6B00"/>
                    <stop offset="1" stop-color="#505685"/>
                </linearGradient>
                <linearGradient id="paint8_linear_4533_754" x1="334" y1="514.073" x2="404.222" y2="560.423" gradientUnits="userSpaceOnUse">
                    <stop stop-color="#505685"/>
                    <stop offset="0.0001" stop-color="#505685"/>
                    <stop offset="0.317708" stop-color="#FF6B00"/>
                    <stop offset="1" stop-color="#505685"/>
                </linearGradient>
                <linearGradient id="paint9_linear_4533_754" x1="257.154" y1="590.919" x2="327.376" y2="637.269" gradientUnits="userSpaceOnUse">
                    <stop stop-color="#505685"/>
                    <stop offset="0.0001" stop-color="#505685"/>
                    <stop offset="0.317708" stop-color="#FF6B00"/>
                    <stop offset="1" stop-color="#505685"/>
                </linearGradient>
                <linearGradient id="paint10_linear_4533_754" x1="103.462" y1="410.847" x2="141.037" y2="318.092" gradientUnits="userSpaceOnUse">
                    <stop stop-color="#505685"/>
                    <stop offset="0.0582928" stop-color="#FF6B00"/>
                    <stop offset="1" stop-color="#505685"/>
                </linearGradient>
            </defs>
        </svg>

    </g>
</svg>



