<svg width="185" height="48" viewBox="0 0 185 48" fill="none" xmlns="http://www.w3.org/2000/svg">
    <g id="headerLogo">
        <path d="M47.2902 23.79C47.2902 29.2269 45.405 34.4955 41.9559 38.6983C38.5068 42.901 33.7072 45.7778 28.3748 46.8385C23.0424 47.8992 17.5072 47.0781 12.7123 44.5152C7.91747 41.9523 4.15959 37.8061 2.07899 32.7831C-0.00159961 27.7601 -0.276171 22.1711 1.30206 16.9684C2.8803 11.7656 6.21368 7.27106 10.7343 4.2505C15.2548 1.22995 20.6829 -0.129706 26.0936 0.403198C31.5042 0.936101 36.5627 3.3286 40.4072 7.17303L37.8387 9.74152C34.5885 6.49133 30.3119 4.46864 25.7375 4.01811C21.1632 3.56757 16.5741 4.71707 12.7523 7.27073C8.93048 9.8244 6.11234 13.6242 4.77805 18.0228C3.44377 22.4213 3.6759 27.1465 5.43489 31.393C7.19389 35.6396 10.3709 39.1449 14.4246 41.3117C18.4784 43.4785 23.158 44.1726 27.6661 43.2759C32.1743 42.3792 36.2321 39.947 39.148 36.3939C42.064 32.8408 43.6578 28.3865 43.6578 23.79H47.2902Z"
              fill="white"/>
        <path d="M15.3059 39.0958C11.7648 37.1329 9.01386 34.003 7.52178 30.2392C6.02971 26.4755 5.88882 22.3108 7.12313 18.4548C8.35744 14.5988 10.8906 11.2901 14.2909 9.09244C17.6913 6.89477 21.7484 5.9441 25.7711 6.40243C29.7938 6.86076 33.5331 8.69972 36.352 11.606C39.1708 14.5122 40.8947 18.306 41.23 22.3408C41.5652 26.3756 40.4911 30.4018 38.1906 33.7335C35.8901 37.0651 32.5056 39.496 28.6137 40.612L27.8681 38.0118C31.1584 37.0683 34.0198 35.0132 35.9647 32.1965C37.9096 29.3798 38.8177 25.9759 38.5343 22.5648C38.2508 19.1536 36.7934 15.9463 34.4103 13.4893C32.0271 11.0322 28.8658 9.4775 25.4649 9.09002C22.064 8.70254 18.634 9.50626 15.7592 11.3642C12.8844 13.2222 10.7429 16.0195 9.69934 19.2795C8.65582 22.5394 8.77493 26.0604 10.0364 29.2424C11.2978 32.4243 13.6235 35.0705 16.6173 36.73L15.3059 39.0958Z"
              fill="white"/>
        <path d="M23.7902 11.29C26.6821 11.29 29.4846 12.2928 31.7201 14.1274C33.9556 15.962 35.4858 18.515 36.05 21.3514C36.6142 24.1878 36.1774 27.132 34.8142 29.6825C33.4509 32.233 31.2455 34.2318 28.5737 35.3385C25.9019 36.4452 22.929 36.5913 20.1616 35.7518C17.3942 34.9123 15.0035 33.1392 13.3968 30.7347C11.7901 28.3301 11.0669 25.4428 11.3504 22.5648C11.6338 19.6868 12.9064 16.9961 14.9513 14.9512L16.3175 16.3174C14.5887 18.0463 13.5128 20.321 13.2732 22.7542C13.0335 25.1874 13.645 27.6283 15.0033 29.6612C16.3616 31.6941 18.3828 33.1931 20.7225 33.9029C23.0621 34.6126 25.5755 34.4891 27.8343 33.5535C30.0931 32.6178 31.9577 30.9279 33.1102 28.7717C34.2627 26.6155 34.632 24.1263 34.155 21.7283C33.678 19.3304 32.3843 17.172 30.4944 15.621C28.6044 14.0699 26.2351 13.2222 23.7902 13.2222L23.7902 11.29Z"
              fill="white"/>
        <path d="M16.3202 19.7343C17.2585 18.0061 18.7671 16.6567 20.5888 15.916C22.4105 15.1754 24.4327 15.0893 26.3107 15.6725C28.1888 16.2556 29.8066 17.4719 30.8884 19.1141C31.9702 20.7563 32.4491 22.7229 32.2436 24.6786C32.038 26.6344 31.1607 28.4583 29.7611 29.8397C28.3615 31.2211 26.5262 32.0745 24.5679 32.2545C22.6096 32.4344 20.6495 31.9298 19.0216 30.8266C17.3937 29.7233 16.1987 28.0898 15.6402 26.2043L17.0174 25.7963C17.4815 27.3632 18.4746 28.7207 19.8274 29.6375C21.1802 30.5543 22.8091 30.9737 24.4365 30.8241C26.0638 30.6746 27.589 29.9654 28.7521 28.8175C29.9152 27.6695 30.6443 26.1537 30.8151 24.5285C30.9859 22.9032 30.5879 21.269 29.6889 19.9043C28.7899 18.5396 27.4455 17.5288 25.8848 17.0442C24.3241 16.5596 22.6436 16.6311 21.1298 17.2466C19.6159 17.8621 18.3622 18.9835 17.5825 20.4196L16.3202 19.7343Z"
              fill="white"/>
        <path d="M27.5097 26.3227C26.9238 27.1833 26.0576 27.8141 25.0587 28.1076C24.0598 28.4011 22.9901 28.3392 22.0318 27.9324C21.0734 27.5256 20.2858 26.7991 19.8031 25.8767C19.3203 24.9543 19.1723 23.893 19.3844 22.8737C19.5964 21.8544 20.1552 20.9402 20.9658 20.2868C21.7763 19.6334 22.7883 19.2812 23.8293 19.2903C24.8704 19.2994 25.8761 19.6692 26.6751 20.3366C27.4741 21.0041 28.0169 21.9279 28.2111 22.9508L27.3835 23.1079C27.2256 22.2765 26.7844 21.5256 26.135 20.9831C25.4856 20.4406 24.6682 20.14 23.822 20.1326C22.9758 20.1253 22.1532 20.4115 21.4945 20.9426C20.8357 21.4737 20.3814 22.2168 20.2091 23.0453C20.0368 23.8737 20.157 24.7363 20.5494 25.4861C20.9418 26.2358 21.582 26.8263 22.3609 27.157C23.1399 27.4876 24.0093 27.5379 24.8212 27.2994C25.6331 27.0608 26.3371 26.5481 26.8134 25.8486L27.5097 26.3227Z"
              fill="white"/>
        <path d="M22.9968 21.4192C23.5453 21.2357 24.1405 21.248 24.6809 21.4541C25.2213 21.6602 25.6736 22.0473 25.9606 22.5495C26.2476 23.0516 26.3516 23.6378 26.2549 24.208C26.1582 24.7783 25.8667 25.2973 25.4302 25.6768C24.9937 26.0563 24.4391 26.2726 23.861 26.289C23.2828 26.3054 22.7169 26.1209 22.2595 25.7668C21.8022 25.4127 21.4818 24.9109 21.3529 24.3471C21.224 23.7832 21.2947 23.1922 21.5527 22.6745L22.4295 23.1117C22.2725 23.4264 22.2296 23.7859 22.308 24.1288C22.3863 24.4717 22.5812 24.7768 22.8593 24.9921C23.1374 25.2075 23.4816 25.3197 23.8332 25.3098C24.1848 25.2998 24.522 25.1682 24.7875 24.9374C25.053 24.7067 25.2302 24.391 25.289 24.0442C25.3478 23.6974 25.2846 23.341 25.11 23.0356C24.9355 22.7302 24.6605 22.4948 24.3318 22.3695C24.0032 22.2442 23.6412 22.2367 23.3077 22.3483L22.9968 21.4192Z"
              fill="white"/>
        <circle cx="23.7902" cy="23.79" r="0.5" transform="rotate(-180 23.7902 23.79)" fill="white"/>
        <path d="M77.12 19.65C77.12 20.71 76.87 21.71 76.37 22.65C75.87 23.59 75.07 24.36 73.97 24.96C72.87 25.54 71.46 25.83 69.74 25.83H65.96V34.29H62.54V13.44H69.74C71.34 13.44 72.69 13.72 73.79 14.28C74.91 14.82 75.74 15.56 76.28 16.5C76.84 17.44 77.12 18.49 77.12 19.65ZM69.74 23.04C71.04 23.04 72.01 22.75 72.65 22.17C73.29 21.57 73.61 20.73 73.61 19.65C73.61 17.37 72.32 16.23 69.74 16.23H65.96V23.04H69.74ZM87.5518 34.56C85.9918 34.56 84.5818 34.21 83.3218 33.51C82.0618 32.79 81.0718 31.79 80.3518 30.51C79.6318 29.21 79.2718 27.71 79.2718 26.01C79.2718 24.33 79.6418 22.84 80.3818 21.54C81.1218 20.24 82.1318 19.24 83.4118 18.54C84.6918 17.84 86.1218 17.49 87.7018 17.49C89.2818 17.49 90.7118 17.84 91.9918 18.54C93.2718 19.24 94.2818 20.24 95.0218 21.54C95.7618 22.84 96.1318 24.33 96.1318 26.01C96.1318 27.69 95.7518 29.18 94.9918 30.48C94.2318 31.78 93.1918 32.79 91.8718 33.51C90.5718 34.21 89.1318 34.56 87.5518 34.56ZM87.5518 31.59C88.4318 31.59 89.2518 31.38 90.0118 30.96C90.7918 30.54 91.4218 29.91 91.9018 29.07C92.3818 28.23 92.6218 27.21 92.6218 26.01C92.6218 24.81 92.3918 23.8 91.9318 22.98C91.4718 22.14 90.8618 21.51 90.1018 21.09C89.3418 20.67 88.5218 20.46 87.6418 20.46C86.7618 20.46 85.9418 20.67 85.1818 21.09C84.4418 21.51 83.8518 22.14 83.4118 22.98C82.9718 23.8 82.7518 24.81 82.7518 26.01C82.7518 27.79 83.2018 29.17 84.1018 30.15C85.0218 31.11 86.1718 31.59 87.5518 31.59ZM102.933 20.16C103.433 19.32 104.093 18.67 104.913 18.21C105.753 17.73 106.743 17.49 107.883 17.49V21.03H107.013C105.673 21.03 104.653 21.37 103.953 22.05C103.273 22.73 102.933 23.91 102.933 25.59V34.29H99.5127V17.76H102.933V20.16ZM115.016 20.55V29.7C115.016 30.32 115.156 30.77 115.436 31.05C115.736 31.31 116.236 31.44 116.936 31.44H119.036V34.29H116.336C114.796 34.29 113.616 33.93 112.796 33.21C111.976 32.49 111.566 31.32 111.566 29.7V20.55H109.616V17.76H111.566V13.65H115.016V17.76H119.036V20.55H115.016ZM129.118 20.55H126.058V34.29H122.608V20.55H120.658V17.76H122.608V16.59C122.608 14.69 123.108 13.31 124.108 12.45C125.128 11.57 126.718 11.13 128.878 11.13V13.98C127.838 13.98 127.108 14.18 126.688 14.58C126.268 14.96 126.058 15.63 126.058 16.59V17.76H129.118V20.55ZM139.319 34.56C137.759 34.56 136.349 34.21 135.089 33.51C133.829 32.79 132.839 31.79 132.119 30.51C131.399 29.21 131.039 27.71 131.039 26.01C131.039 24.33 131.409 22.84 132.149 21.54C132.889 20.24 133.899 19.24 135.179 18.54C136.459 17.84 137.889 17.49 139.469 17.49C141.049 17.49 142.479 17.84 143.759 18.54C145.039 19.24 146.049 20.24 146.789 21.54C147.529 22.84 147.899 24.33 147.899 26.01C147.899 27.69 147.519 29.18 146.759 30.48C145.999 31.78 144.959 32.79 143.639 33.51C142.339 34.21 140.899 34.56 139.319 34.56ZM139.319 31.59C140.199 31.59 141.019 31.38 141.779 30.96C142.559 30.54 143.189 29.91 143.669 29.07C144.149 28.23 144.389 27.21 144.389 26.01C144.389 24.81 144.159 23.8 143.699 22.98C143.239 22.14 142.629 21.51 141.869 21.09C141.109 20.67 140.289 20.46 139.409 20.46C138.529 20.46 137.709 20.67 136.949 21.09C136.209 21.51 135.619 22.14 135.179 22.98C134.739 23.8 134.519 24.81 134.519 26.01C134.519 27.79 134.969 29.17 135.869 30.15C136.789 31.11 137.939 31.59 139.319 31.59ZM154.7 12.09V34.29H151.28V12.09H154.7ZM160.93 15.57C160.31 15.57 159.79 15.36 159.37 14.94C158.95 14.52 158.74 14 158.74 13.38C158.74 12.76 158.95 12.24 159.37 11.82C159.79 11.4 160.31 11.19 160.93 11.19C161.53 11.19 162.04 11.4 162.46 11.82C162.88 12.24 163.09 12.76 163.09 13.38C163.09 14 162.88 14.52 162.46 14.94C162.04 15.36 161.53 15.57 160.93 15.57ZM162.61 17.76V34.29H159.19V17.76H162.61ZM174.271 34.56C172.711 34.56 171.301 34.21 170.041 33.51C168.781 32.79 167.791 31.79 167.071 30.51C166.351 29.21 165.991 27.71 165.991 26.01C165.991 24.33 166.361 22.84 167.101 21.54C167.841 20.24 168.851 19.24 170.131 18.54C171.411 17.84 172.841 17.49 174.421 17.49C176.001 17.49 177.431 17.84 178.711 18.54C179.991 19.24 181.001 20.24 181.741 21.54C182.481 22.84 182.851 24.33 182.851 26.01C182.851 27.69 182.471 29.18 181.711 30.48C180.951 31.78 179.911 32.79 178.591 33.51C177.291 34.21 175.851 34.56 174.271 34.56ZM174.271 31.59C175.151 31.59 175.971 31.38 176.731 30.96C177.511 30.54 178.141 29.91 178.621 29.07C179.101 28.23 179.341 27.21 179.341 26.01C179.341 24.81 179.111 23.8 178.651 22.98C178.191 22.14 177.581 21.51 176.821 21.09C176.061 20.67 175.241 20.46 174.361 20.46C173.481 20.46 172.661 20.67 171.901 21.09C171.161 21.51 170.571 22.14 170.131 22.98C169.691 23.8 169.471 24.81 169.471 26.01C169.471 27.79 169.921 29.17 170.821 30.15C171.741 31.11 172.891 31.59 174.271 31.59Z"
              fill="white"/>
    </g>
    <g id="figmaLogo">
        <g clip-path="url(#clip0_4533_1212)">
            <path d="M76.5625 0H23.4375C10.4933 0 0 10.4933 0 23.4375V76.5625C0 89.5067 10.4933 100 23.4375 100H76.5625C89.5067 100 100 89.5067 100 76.5625V23.4375C100 10.4933 89.5067 0 76.5625 0Z"
                  fill="#F4F2ED"/>
            <mask id="mask0_4533_1212" style="mask-type:luminance" maskUnits="userSpaceOnUse" x="23" y="10" width="53"
                  height="80">
                <path d="M23.8281 10.9375H75.9219V89.0625H23.8281V10.9375Z" fill="white"/>
            </mask>
            <g mask="url(#mask0_4533_1212)">
                <path d="M36.8543 89.0625C44.0418 89.0625 49.875 83.2293 49.875 76.0418V63.0207H36.8543C29.6668 63.0207 23.8333 68.8543 23.8333 76.0418C23.8333 83.2293 29.6668 89.0625 36.8543 89.0625Z"
                      fill="#0ACF83"/>
                <path d="M23.8333 50C23.8333 42.8125 29.6668 36.9793 36.8543 36.9793H49.875V63.0207H36.8543C29.6668 63.0207 23.8333 57.1875 23.8333 50Z"
                      fill="#A259FF"/>
                <path d="M23.8333 23.9582C23.8333 16.7707 29.6668 10.9375 36.8543 10.9375H49.875V36.9793H36.8543C29.6668 36.9793 23.8333 31.1457 23.8333 23.9582Z"
                      fill="#F24E1E"/>
                <path d="M49.875 10.9375H62.8957C70.0832 10.9375 75.9168 16.7707 75.9168 23.9582C75.9168 31.1457 70.0832 36.9793 62.8957 36.9793H49.875V10.9375Z"
                      fill="#FF7262"/>
                <path d="M75.9168 50C75.9168 57.1875 70.0832 63.0207 62.8957 63.0207C55.7082 63.0207 49.875 57.1875 49.875 50C49.875 42.8125 55.7082 36.9793 62.8957 36.9793C70.0832 36.9793 75.9168 42.8125 75.9168 50Z"
                      fill="#1ABCFE"/>
            </g>
        </g>
        <defs>
            <clipPath id="clip0_4533_1212">
                <rect width="100" height="100" fill="white"/>
            </clipPath>
        </defs>
    </g>
    <g id="HeaderGitHub">
        <path fill-rule="evenodd" clip-rule="evenodd"
              d="M17.5001 1.09375C8.2342 1.09375 0.729248 8.5987 0.729248 17.8646C0.729248 25.2857 5.5299 31.5538 12.1963 33.7759C13.0348 33.9227 13.3493 33.4195 13.3493 32.9793C13.3493 32.581 13.3283 31.2603 13.3283 29.8557C9.11467 30.6314 8.02456 28.8285 7.68914 27.8852C7.50047 27.403 6.68289 25.9146 5.97013 25.5163C5.38315 25.2018 4.54461 24.4262 5.94917 24.4052C7.26987 24.3842 8.21323 25.6211 8.52768 26.1242C10.0371 28.6608 12.4479 27.948 13.4122 27.5078C13.5589 26.4177 13.9992 25.684 14.4813 25.2647C10.7498 24.8454 6.8506 23.399 6.8506 16.9841C6.8506 15.1603 7.50047 13.6509 8.56961 12.477C8.4019 12.0577 7.81492 10.3387 8.73732 8.03268C8.73732 8.03268 10.1419 7.59245 13.3493 9.75169C14.691 9.37435 16.1165 9.18568 17.542 9.18568C18.9675 9.18568 20.393 9.37435 21.7347 9.75169C24.9421 7.57148 26.3467 8.03268 26.3467 8.03268C27.2691 10.3387 26.6821 12.0577 26.5144 12.477C27.5835 13.6509 28.2334 15.1393 28.2334 16.9841C28.2334 23.4199 24.3132 24.8454 20.5817 25.2647C21.1897 25.7888 21.7138 26.7951 21.7138 28.3673C21.7138 30.6104 21.6928 32.4133 21.6928 32.9793C21.6928 33.4195 22.0072 33.9436 22.8458 33.7759C29.4703 31.5538 34.2709 25.2647 34.2709 17.8646C34.2709 8.5987 26.766 1.09375 17.5001 1.09375V1.09375Z"
              fill="white"/>
    </g>
    <g id="HeaderTelegram">
        <path d="M32.1586 0.340967L1.1503 12.5808C-0.0975299 13.1508 -0.519581 14.2923 0.8487 14.9118L8.80368 17.4995L28.0378 5.33177C29.088 4.5679 30.1632 4.77159 29.238 5.6119L12.7185 20.9224L12.1996 27.4017C12.6802 28.4021 13.5603 28.4068 14.1216 27.9095L18.692 23.4829L26.5195 29.4827C28.3375 30.5844 29.3267 29.8734 29.7179 27.8541L34.852 2.96937C35.3851 0.483814 34.476 -0.611346 32.1586 0.340967Z"
              fill="white"/>

    </g>
    <g id="gitLogo">
        <svg width="105" height="105" viewBox="0 0 105 105" fill="none" xmlns="http://www.w3.org/2000/svg">
            <g clip-path="url(#clip0_2_5685)">
                <path d="M103.02 47.8219L57.1758 1.98038C54.5372 -0.6598 50.2552 -0.6598 47.6134 1.98038L38.0937 11.5001L50.1699 23.5763C52.9762 22.6281 56.1943 23.2642 58.4313 25.5012C60.6789 27.7525 61.3106 30.9981 60.3393 33.8134L71.9775 45.452C74.7932 44.482 78.0421 45.1095 80.291 47.3621C83.434 50.5039 83.434 55.596 80.291 58.7399C77.1471 61.8841 72.055 61.8841 68.9095 58.7399C66.5454 56.3733 65.9613 52.9013 67.1582 49.9888L56.3046 39.1352L56.3034 67.6973C57.0902 68.0863 57.8088 68.6002 58.4313 69.2189C61.5743 72.3607 61.5743 77.4532 58.4313 80.5995C55.2874 83.7422 50.1929 83.7422 47.0535 80.5995C43.9105 77.4532 43.9105 72.3611 47.0535 69.2193C47.8067 68.4658 48.7019 67.869 49.6871 67.4635V38.6352C48.7004 38.2324 47.8048 37.6353 47.0535 36.8793C44.6722 34.5013 44.0996 31.0071 45.3198 28.0831L33.4154 16.1775L1.98105 47.6099C-0.660352 50.2525 -0.660352 54.5349 1.98105 57.1755L47.8259 103.018C50.4652 105.658 54.7464 105.658 57.3891 103.018L103.019 57.3884C105.66 54.747 105.66 50.4621 103.019 47.8219" fill="#DE4C36"/>
            </g>
            <defs>
                <clipPath id="clip0_2_5685">
                    <rect width="105" height="105" fill="white"/>
                </clipPath>
            </defs>
        </svg>

    </g>
    <g id="HeaderLinkedIn">
        <rect width="32" height="32" rx="3" fill="white"/>
        <path d="M6.33333 2.5C4.76853 2.5 3.5 3.76853 3.5 5.33333C3.5 6.89814 4.76853 8.16667 6.33333 8.16667C7.89814 8.16667 9.16667 6.89814 9.16667 5.33333C9.16667 3.76853 7.89814 2.5 6.33333 2.5Z"
              fill="black"/>
        <path d="M3.66667 10.5C3.57462 10.5 3.5 10.5746 3.5 10.6667V28C3.5 28.092 3.57462 28.1667 3.66667 28.1667H9C9.09205 28.1667 9.16667 28.092 9.16667 28V10.6667C9.16667 10.5746 9.09205 10.5 9 10.5H3.66667Z"
              fill="black"/>
        <path d="M12.3333 10.5C12.2413 10.5 12.1667 10.5746 12.1667 10.6667V28C12.1667 28.092 12.2413 28.1667 12.3333 28.1667H17.6667C17.7587 28.1667 17.8333 28.092 17.8333 28V18.6667C17.8333 18.0036 18.0967 17.3677 18.5656 16.8989C19.0344 16.4301 19.6703 16.1667 20.3333 16.1667C20.9964 16.1667 21.6323 16.4301 22.1011 16.8989C22.5699 17.3677 22.8333 18.0036 22.8333 18.6667V28C22.8333 28.092 22.908 28.1667 23 28.1667H28.3333C28.4254 28.1667 28.5 28.092 28.5 28V16.507C28.5 13.2713 25.6859 10.74 22.4665 11.0327C21.4736 11.1229 20.4919 11.3697 19.5753 11.7626L17.8333 12.5091V10.6667C17.8333 10.5746 17.7587 10.5 17.6667 10.5H12.3333Z"
              fill="black"/>
    </g>
    <g>
        <path d="M36.7527 0.38643L1.31463 14.2583C-0.111463 14.9043 -0.593806 16.1979 0.969943 16.9L10.0613 19.8328L32.0432 6.04267C33.2434 5.17696 34.4722 5.4078 33.4148 6.36015L14.5354 23.712L13.9424 31.0553C14.4917 32.1891 15.4974 32.1944 16.139 31.6308L21.3623 26.6139L30.308 33.4137C32.3857 34.6623 33.5163 33.8565 33.9633 31.568L39.8309 3.36528C40.4401 0.548323 39.4012 -0.692859 36.7527 0.38643Z"
              fill="white"/>
    </g>
    <g id="gitHubSkill">
        <path d="M33.7891 69.7917C33.9627 69.5312 33.8976 69.2491 33.5938 68.9453C33.2031 68.6415 32.8993 68.5981 32.6823 68.8151C32.5087 69.0755 32.5738 69.3576 32.8776 69.6615C33.2682 69.9653 33.572 70.0087 33.7891 69.7917ZM31.9661 67.1224C31.7491 66.8186 31.4887 66.7318 31.1849 66.862C30.9245 67.0356 30.9245 67.296 31.1849 67.6432C31.4887 67.9904 31.7491 68.099 31.9661 67.9688C32.2266 67.7951 32.2266 67.513 31.9661 67.1224ZM29.2969 64.5182C29.3837 64.3446 29.2752 64.171 28.9714 63.9974C28.6675 63.9106 28.4939 63.954 28.4505 64.1276C28.3203 64.3446 28.4071 64.5182 28.7109 64.6484C29.0582 64.7352 29.2535 64.6918 29.2969 64.5182ZM30.6641 66.0156C30.7509 65.9722 30.7834 65.8746 30.7617 65.7227C30.74 65.5707 30.6641 65.4514 30.5339 65.3646C30.2734 65.0608 30.0564 64.9957 29.8828 65.1693C29.7092 65.3429 29.7309 65.5816 29.9479 65.8854C30.2083 66.1458 30.447 66.1892 30.6641 66.0156ZM36.263 70.8984C36.3498 70.5946 36.1545 70.3559 35.6771 70.1823C35.2865 70.0521 35.0043 70.1389 34.8307 70.4427C34.7439 70.7465 34.9392 70.9852 35.4167 71.1589C35.8073 71.2891 36.0894 71.2023 36.263 70.8984ZM38.9974 71.0938C38.9974 70.7465 38.737 70.5729 38.2161 70.5729C37.7821 70.5729 37.5651 70.7465 37.5651 71.0938C37.5651 71.441 37.8038 71.6146 38.2812 71.6146C38.7587 71.6146 38.9974 71.441 38.9974 71.0938ZM41.5365 70.638C41.4496 70.3342 41.1675 70.2257 40.6901 70.3125C40.2127 70.3993 40.0174 70.5946 40.1042 70.8984C40.191 71.2457 40.4514 71.3759 40.8854 71.2891C41.3194 71.2023 41.5365 70.9852 41.5365 70.638ZM83.3333 50C83.3333 40.7986 80.0781 32.9427 73.5677 26.4323C67.0573 19.9219 59.2014 16.6667 50 16.6667C40.7986 16.6667 32.9427 19.9219 26.4323 26.4323C19.9219 32.9427 16.6667 40.7986 16.6667 50C16.6667 57.2483 18.7934 63.7695 23.0469 69.5638C27.3003 75.3581 32.7691 79.3837 39.4531 81.6406C40.2344 81.7708 40.8095 81.6623 41.1784 81.3151C41.5473 80.9679 41.7318 80.5339 41.7318 80.013C41.7318 77.7561 41.7101 75.6944 41.6667 73.8281C41.4062 73.8715 41.0699 73.9258 40.6576 73.9909C40.2452 74.056 39.4748 74.0994 38.3464 74.1211C37.2179 74.1428 36.1762 74.056 35.2214 73.8607C34.2665 73.6654 33.3225 73.2313 32.3893 72.5586C31.4562 71.8858 30.816 70.9852 30.4687 69.8568C29.4705 67.296 28.2335 65.6901 26.7578 65.0391C26.671 64.9957 26.5733 64.9197 26.4648 64.8112L25.944 64.2904L25.4883 63.6719L25.7487 63.1836L27.0182 62.9557C27.2786 62.9557 27.6042 62.9991 27.9948 63.0859C28.3854 63.1727 29.0365 63.5091 29.9479 64.095C30.8594 64.681 31.5755 65.4514 32.0964 66.4062C32.7908 67.6215 33.6046 68.533 34.5378 69.1406C35.4709 69.7483 36.4149 70.0521 37.3698 70.0521C38.3246 70.0521 39.1493 69.9761 39.8438 69.8242C40.5382 69.6723 41.1892 69.4661 41.7969 69.2057C42.1007 67.1658 42.8168 65.6684 43.9453 64.7135C41.8186 64.4531 39.9523 64.0516 38.3464 63.5091C36.7405 62.9666 35.1562 62.1202 33.5938 60.9701C32.0312 59.8199 30.8268 58.1706 29.9805 56.0221C29.1341 53.8737 28.7109 51.2804 28.7109 48.2422C28.7109 44.8134 29.8611 41.8403 32.1615 39.3229C31.1198 36.6319 31.2283 33.6806 32.487 30.4687C33.3116 30.2083 34.4944 30.3711 36.0352 30.957C37.576 31.543 38.8889 32.1832 39.974 32.8776L41.6667 33.9193C44.184 33.1814 46.9618 32.8125 50 32.8125C53.0382 32.8125 55.816 33.1814 58.3333 33.9193C58.8108 33.6155 59.4293 33.2248 60.1888 32.7474C60.9483 32.27 62.1528 31.7057 63.8021 31.0547C65.4514 30.4036 66.6884 30.2083 67.513 30.4687C68.7717 33.6806 68.8802 36.6319 67.8385 39.3229C70.1389 41.8403 71.2891 44.8134 71.2891 48.2422C71.2891 50.7161 70.9852 52.8971 70.3776 54.7852C69.77 56.6732 68.9996 58.1923 68.0664 59.3424C67.1332 60.4926 65.9722 61.4583 64.5833 62.2396C63.1944 63.0208 61.8381 63.5851 60.5143 63.9323C59.1905 64.2795 57.704 64.5399 56.0547 64.7135C57.5738 66.059 58.3333 68.1207 58.3333 70.8984C58.3333 72.6345 58.3225 74.566 58.3008 76.6927C58.2791 78.8194 58.2682 79.9262 58.2682 80.013C58.2682 80.5339 58.4527 80.9679 58.8216 81.3151C59.1905 81.6623 59.7656 81.7708 60.5469 81.6406C67.2309 79.3837 72.6997 75.3581 76.9531 69.5638C81.2066 63.7695 83.3333 57.2483 83.3333 50ZM100 18.75V81.25C100 86.4149 98.1662 90.8312 94.4987 94.4987C90.8312 98.1662 86.4149 100 81.25 100H18.75C13.5851 100 9.16884 98.1662 5.5013 94.4987C1.83377 90.8312 0 86.4149 0 81.25V18.75C0 13.5851 1.83377 9.16884 5.5013 5.5013C9.16884 1.83377 13.5851 0 18.75 0H81.25C86.4149 0 90.8312 1.83377 94.4987 5.5013C98.1662 9.16884 100 13.5851 100 18.75Z"
              fill="white"/>
    </g>
    <g id="circle">
        <circle cx="12.5" cy="12.5" r="12.5" fill="white"/>
    </g>
    <g id="footerGitHub">
        <path fill-rule="evenodd" clip-rule="evenodd"
              d="M17.5001 1.09375C8.2342 1.09375 0.729248 8.5987 0.729248 17.8646C0.729248 25.2857 5.5299 31.5538 12.1963 33.7759C13.0348 33.9227 13.3493 33.4195 13.3493 32.9793C13.3493 32.581 13.3283 31.2603 13.3283 29.8557C9.11467 30.6314 8.02456 28.8285 7.68914 27.8852C7.50047 27.403 6.68289 25.9146 5.97013 25.5163C5.38315 25.2018 4.54461 24.4262 5.94917 24.4052C7.26987 24.3842 8.21323 25.6211 8.52768 26.1242C10.0371 28.6608 12.4479 27.948 13.4122 27.5078C13.5589 26.4177 13.9992 25.684 14.4813 25.2647C10.7498 24.8454 6.8506 23.399 6.8506 16.9841C6.8506 15.1603 7.50047 13.6509 8.56961 12.477C8.4019 12.0577 7.81492 10.3387 8.73732 8.03268C8.73732 8.03268 10.1419 7.59245 13.3493 9.75169C14.691 9.37435 16.1165 9.18568 17.542 9.18568C18.9675 9.18568 20.393 9.37435 21.7347 9.75169C24.9421 7.57148 26.3467 8.03268 26.3467 8.03268C27.2691 10.3387 26.6821 12.0577 26.5144 12.477C27.5835 13.6509 28.2334 15.1393 28.2334 16.9841C28.2334 23.4199 24.3132 24.8454 20.5817 25.2647C21.1897 25.7888 21.7138 26.7951 21.7138 28.3673C21.7138 30.6104 21.6928 32.4133 21.6928 32.9793C21.6928 33.4195 22.0072 33.9436 22.8458 33.7759C29.4703 31.5538 34.2709 25.2647 34.2709 17.8646C34.2709 8.5987 26.766 1.09375 17.5001 1.09375Z"
              fill="white"/>
    </g>
    <g id="footerLinkedIn">
        <rect width="35" height="35" rx="3" fill="white"/>
        <path d="M6.92708 2.73438C5.21558 2.73438 3.82812 4.12183 3.82812 5.83333C3.82812 7.54484 5.21558 8.93229 6.92708 8.93229C8.63859 8.93229 10.026 7.54484 10.026 5.83333C10.026 4.12183 8.63859 2.73438 6.92708 2.73438Z"
              fill="black"/>
        <path d="M4.01042 11.4844C3.90974 11.4844 3.82812 11.566 3.82812 11.6667V30.625C3.82812 30.7257 3.90974 30.8073 4.01042 30.8073H9.84375C9.94443 30.8073 10.026 30.7257 10.026 30.625V11.6667C10.026 11.566 9.94443 11.4844 9.84375 11.4844H4.01042Z"
              fill="black"/>
        <path d="M13.4896 11.4844C13.3889 11.4844 13.3073 11.566 13.3073 11.6667V30.625C13.3073 30.7257 13.3889 30.8073 13.4896 30.8073H19.3229C19.4236 30.8073 19.5052 30.7257 19.5052 30.625V20.4167C19.5052 19.6915 19.7933 18.996 20.3061 18.4832C20.8189 17.9704 21.5144 17.6823 22.2396 17.6823C22.9648 17.6823 23.6603 17.9704 24.1731 18.4832C24.6859 18.996 24.974 19.6915 24.974 20.4167V30.625C24.974 30.7257 25.0556 30.8073 25.1562 30.8073H30.9896C31.0903 30.8073 31.1719 30.7257 31.1719 30.625V18.0545C31.1719 14.5155 28.0939 11.7469 24.5727 12.067C23.4867 12.1657 22.4131 12.4357 21.4105 12.8653L19.5052 13.6819V11.6667C19.5052 11.566 19.4236 11.4844 19.3229 11.4844H13.4896Z"
              fill="black"/>
    </g>
    <g id="footerTelegram">
        <path d="M36.7527 0.38643L1.31463 14.2583C-0.111463 14.9043 -0.593806 16.1979 0.969943 16.9L10.0613 19.8328L32.0432 6.04268C33.2434 5.17696 34.4722 5.4078 33.4148 6.36015L14.5354 23.712L13.9424 31.0553C14.4917 32.1891 15.4974 32.1944 16.139 31.6308L21.3623 26.6139L30.308 33.4137C32.3857 34.6623 33.5163 33.8565 33.9633 31.568L39.8309 3.36528C40.4401 0.548323 39.4012 -0.692859 36.7527 0.38643Z"
              fill="white"/>

    </g>
    <g id="backgroundImg">
        <svg width="668" height="668" viewBox="0 0 668 668" fill="none" xmlns="http://www.w3.org/2000/svg">
            <g opacity="0.5">
                <path d="M590.154 436.461L513.308 359.615" stroke="#505685"/>
                <path d="M667 359.615L590.154 282.769" stroke="url(#paint0_linear_4533_754)"/>
                <path d="M513.308 359.615L590.154 282.769" stroke="#505685"/>
                <path d="M590.154 436.461L667 359.615" stroke="#505685"/>
                <path d="M513.308 359.615L410.846 257.153" stroke="#505685"/>
                <path d="M590.154 282.769L487.693 180.307" stroke="url(#paint1_linear_4533_754)"/>
                <path d="M410.846 257.153L487.693 180.307" stroke="#505685"/>
                <path d="M513.308 359.615L590.154 282.769" stroke="url(#paint2_linear_4533_754)"/>
                <path d="M308.385 1L385.231 77.8462" stroke="#505685"/>
                <path d="M231.539 77.8459L308.385 154.692" stroke="#505685"/>
                <path d="M385.231 77.8459L308.385 154.692" stroke="#505685"/>
                <path d="M308.385 1L231.539 77.8461" stroke="#505685"/>
                <path d="M385.231 77.8459L487.693 180.307" stroke="url(#paint3_linear_4533_754)"/>
                <path d="M308.385 154.692L410.846 257.154" stroke="#505685"/>
                <path d="M385.231 77.8459L308.385 154.692" stroke="#505685"/>
                <path d="M410.846 257.154L487.693 334" stroke="#505685"/>
                <path d="M334 334L410.846 410.846" stroke="#505685"/>
                <path d="M487.693 334L410.846 410.846" stroke="#505685"/>
                <path d="M487.692 334L590.154 436.462" stroke="#505685"/>
                <path d="M410.846 410.846L513.308 513.308" stroke="#505685"/>
                <path d="M590.154 436.461L513.308 513.308" stroke="url(#paint4_linear_4533_754)"/>
                <path d="M487.692 334L410.846 410.846" stroke="#505685"/>
                <path d="M334 334L257.154 257.154" stroke="#505685"/>
                <path d="M410.847 257.154L334.001 180.308" stroke="#505685"/>
                <path d="M257.154 257.154L334 180.308" stroke="#505685"/>
                <path d="M257.154 257.154L154.693 154.692" stroke="#505685"/>
                <path d="M334 180.307L231.539 77.8458" stroke="#505685"/>
                <path d="M154.693 154.692L231.539 77.846" stroke="url(#paint5_linear_4533_754)"/>
                <path d="M257.154 257.154L334 180.308" stroke="#505685"/>
                <path d="M436.461 590.154L359.615 513.308" stroke="#505685"/>
                <path d="M513.308 513.308L436.461 436.462" stroke="#505685"/>
                <path d="M359.615 513.308L436.461 436.462" stroke="#505685"/>
                <path d="M436.461 590.154L513.307 513.308" stroke="#505685"/>
                <path d="M359.615 513.308L257.153 410.847" stroke="#505685"/>
                <path d="M436.461 436.462L333.999 334" stroke="#505685"/>
                <path d="M257.154 410.847L334 334.001" stroke="#505685"/>
                <path d="M359.615 513.308L436.461 436.462" stroke="url(#paint6_linear_4533_754)"/>
                <path d="M154.692 154.693L231.539 231.539" stroke="#505685"/>
                <path d="M77.8462 231.539L154.692 308.385" stroke="#505685"/>
                <path d="M231.539 231.539L154.692 308.385" stroke="#505685"/>
                <path d="M154.692 154.693L77.8462 231.539" stroke="#505685"/>
                <path d="M231.539 231.539L334 334" stroke="url(#paint7_linear_4533_754)"/>
                <path d="M154.693 308.385L257.154 410.846" stroke="#505685"/>
                <path d="M231.539 231.539L154.693 308.385" stroke="#505685"/>
                <path d="M257.154 410.847L334 487.693" stroke="#505685"/>
                <path d="M180.308 487.693L257.154 564.539" stroke="#505685"/>
                <path d="M334 487.693L257.154 564.539" stroke="#505685"/>
                <path d="M334 487.693L436.462 590.154" stroke="url(#paint8_linear_4533_754)"/>
                <path d="M257.154 564.539L359.616 667" stroke="url(#paint9_linear_4533_754)"/>
                <path d="M436.462 590.154L359.616 667" stroke="#505685"/>
                <path d="M334 487.693L257.154 564.539" stroke="#505685"/>
                <path d="M180.308 487.693L103.461 410.847" stroke="#505685"/>
                <path d="M257.154 410.847L180.308 334.001" stroke="#505685"/>
                <path d="M103.462 410.847L180.308 334.001" stroke="#505685"/>
                <path d="M103.462 410.847L1.00012 308.385" stroke="#505685"/>
                <path d="M180.308 334.001L77.8461 231.539" stroke="#505685"/>
                <path d="M1.00024 308.385L77.8464 231.539" stroke="#505685"/>
                <path d="M103.462 410.847L180.308 334.001" stroke="url(#paint10_linear_4533_754)"/>
            </g>
            <defs>
                <linearGradient id="paint0_linear_4533_754" x1="667" y1="339.83" x2="614.334" y2="305.067" gradientUnits="userSpaceOnUse">
                    <stop stop-color="#505685"/>
                    <stop offset="1" stop-color="#FF6B00"/>
                </linearGradient>
                <linearGradient id="paint1_linear_4533_754" x1="588.84" y1="282.769" x2="466.281" y2="232.197" gradientUnits="userSpaceOnUse">
                    <stop stop-color="#FF6B00"/>
                    <stop offset="1" stop-color="#505685"/>
                </linearGradient>
                <linearGradient id="paint2_linear_4533_754" x1="533.093" y1="359.615" x2="567.856" y2="306.948" gradientUnits="userSpaceOnUse">
                    <stop stop-color="#505685"/>
                    <stop offset="1" stop-color="#FF6B00"/>
                </linearGradient>
                <linearGradient id="paint3_linear_4533_754" x1="385.231" y1="104.226" x2="455.453" y2="150.576" gradientUnits="userSpaceOnUse">
                    <stop stop-color="#505685"/>
                    <stop offset="0.421875" stop-color="#FF6B00"/>
                    <stop offset="1" stop-color="#505685"/>
                </linearGradient>
                <linearGradient id="paint4_linear_4533_754" x1="570.369" y1="436.461" x2="535.606" y2="489.128" gradientUnits="userSpaceOnUse">
                    <stop stop-color="#505685"/>
                    <stop offset="0.0001" stop-color="#505685"/>
                    <stop offset="0.317708" stop-color="#FF6B00"/>
                    <stop offset="1" stop-color="#505685"/>
                </linearGradient>
                <linearGradient id="paint5_linear_4533_754" x1="154.693" y1="154.692" x2="192.267" y2="61.9373" gradientUnits="userSpaceOnUse">
                    <stop stop-color="#505685"/>
                    <stop offset="0.494792" stop-color="#FF6B00"/>
                    <stop offset="1" stop-color="#505685"/>
                </linearGradient>
                <linearGradient id="paint6_linear_4533_754" x1="379.4" y1="513.308" x2="414.163" y2="460.642" gradientUnits="userSpaceOnUse">
                    <stop stop-color="#FF6B00"/>
                    <stop offset="0.234375" stop-color="#505685"/>
                </linearGradient>
                <linearGradient id="paint7_linear_4533_754" x1="257.483" y1="257.811" x2="347.977" y2="294.701" gradientUnits="userSpaceOnUse">
                    <stop stop-color="#505685"/>
                    <stop offset="0.75" stop-color="#FF6B00"/>
                    <stop offset="1" stop-color="#505685"/>
                </linearGradient>
                <linearGradient id="paint8_linear_4533_754" x1="334" y1="514.073" x2="404.222" y2="560.423" gradientUnits="userSpaceOnUse">
                    <stop stop-color="#505685"/>
                    <stop offset="0.0001" stop-color="#505685"/>
                    <stop offset="0.317708" stop-color="#FF6B00"/>
                    <stop offset="1" stop-color="#505685"/>
                </linearGradient>
                <linearGradient id="paint9_linear_4533_754" x1="257.154" y1="590.919" x2="327.376" y2="637.269" gradientUnits="userSpaceOnUse">
                    <stop stop-color="#505685"/>
                    <stop offset="0.0001" stop-color="#505685"/>
                    <stop offset="0.317708" stop-color="#FF6B00"/>
                    <stop offset="1" stop-color="#505685"/>
                </linearGradient>
                <linearGradient id="paint10_linear_4533_754" x1="103.462" y1="410.847" x2="141.037" y2="318.092" gradientUnits="userSpaceOnUse">
                    <stop stop-color="#505685"/>
                    <stop offset="0.0582928" stop-color="#FF6B00"/>
                    <stop offset="1" stop-color="#505685"/>
                </linearGradient>
            </defs>
        </svg>
        <g id="JSLogo">
            <svg width="100" height="100" viewBox="0 0 120 120" fill="none" xmlns="http://www.w3.org/2000/svg">
                <path d="M2.25476 0H117.745V120H2.25476V0Z" fill="#F7DF1E"/>
                <path d="M32.6199 100.28L41.4581 94.7229C43.1631 97.8641 44.7142 100.522 48.4346 100.522C52.0009 100.522 54.2493 99.0723 54.2493 93.4342V55.0913H65.1024V93.5936C65.1024 105.274 58.5132 110.59 48.8999 110.59C40.2177 110.59 35.178 105.918 32.6198 100.28" fill="black"/>
                <path d="M70.9998 99.0724L79.8368 93.756C82.1631 97.7035 85.1866 100.603 90.5354 100.603C95.0324 100.603 97.9 98.2669 97.9 95.0448C97.9 91.1783 94.9543 89.8088 89.9926 87.5541L87.2801 86.345C79.4496 82.8819 74.2553 78.5322 74.2553 69.3492C74.2553 60.8913 80.4571 54.4469 90.1481 54.4469C97.0478 54.4469 102.009 56.9442 105.575 63.469L97.1248 69.1073C95.2641 65.6438 93.2491 64.2747 90.1483 64.2747C86.9697 64.2747 84.9539 66.369 84.9539 69.1073C84.9539 72.4905 86.9697 73.8602 91.6207 75.9547L94.3338 77.1629C103.559 81.2713 108.754 85.4595 108.754 94.8836C108.754 105.034 101.079 110.591 90.7682 110.591C80.6901 110.591 74.1779 105.597 70.9999 99.0724" fill="black"/>
            </svg>


        </g>
        <g id="SassLogo">
            <svg width="117" height="87" viewBox="0 0 117 87" fill="none" xmlns="http://www.w3.org/2000/svg">
                <g clip-path="url(#clip0_2_5689)">
                    <path d="M100.673 50.0766C96.603 50.0975 93.0653 51.0694 90.1035 52.5063C89.0162 50.3721 87.9295 48.4708 87.738 47.076C87.5246 45.4493 87.2691 44.4561 87.5246 42.5122C87.7805 40.5683 88.9312 37.8001 88.9098 37.589C88.8887 37.3778 88.6538 36.3846 86.3098 36.3637C83.9658 36.3424 81.9413 36.8073 81.7068 37.42C81.4724 38.0326 81.025 39.4273 80.7266 40.8637C80.3216 42.9771 76.0386 50.5198 73.5881 54.471C72.7993 52.9291 72.1174 51.5765 71.968 50.499C71.755 48.8722 71.4991 47.879 71.755 45.9351C72.0109 43.9912 73.1617 41.2235 73.1402 41.0119C73.1187 40.8007 72.8843 39.8075 70.5403 39.7866C68.1958 39.7653 66.1713 40.2302 65.9373 40.8429C65.7029 41.4559 65.4469 42.8923 64.957 44.2871C64.4667 45.6818 58.7769 58.275 57.2852 61.5285C56.6824 62.8453 56.0501 64.1487 55.3886 65.4376C55.3886 65.4376 55.3672 65.501 55.3032 65.6066C55.0954 66.0107 54.8824 66.4122 54.6643 66.811V66.8318C54.3444 67.4028 54.0035 67.9307 53.833 67.9307C53.705 67.9307 53.4706 66.4095 53.8755 64.3387C54.7278 59.9652 56.7524 53.1615 56.7313 52.9291C56.7313 52.8022 57.1148 51.6191 55.4101 51.006C53.7475 50.3934 53.1511 51.4075 53.0017 51.4075C52.8527 51.4075 52.7458 51.7668 52.7458 51.7668C52.7458 51.7668 54.6003 44.118 49.2085 44.118C45.8417 44.118 41.1958 47.7734 38.8943 51.0694C36.278 52.4811 33.6639 53.8968 31.052 55.3166C29.7953 56.0139 28.4951 56.7113 27.2803 57.3661C27.1949 57.2818 27.1099 57.1758 27.0244 57.0915C20.5034 50.1822 8.442 45.3012 8.95339 36.0257C9.14534 32.6449 10.3171 23.7705 32.1178 12.9947C50.0608 4.22583 64.3392 6.65549 66.8111 12.0436C70.3484 19.7349 59.1608 34.0183 40.6204 36.0887C33.5455 36.8708 29.8373 34.1661 28.9 33.152C27.9197 32.0953 27.7703 32.0318 27.4079 32.2435C26.8115 32.5606 27.1949 33.5113 27.4079 34.0605C27.9622 35.4969 30.2422 38.0326 34.0994 39.2796C37.5091 40.378 45.7988 40.991 55.8361 37.1454C67.0666 32.8348 75.8466 20.8546 73.2682 10.8183C70.6893 0.633908 53.641 -2.72556 37.5091 2.95799C27.9197 6.33921 17.52 11.6634 10.0402 18.594C1.15363 26.834 -0.253039 33.997 0.322334 36.9976C2.38984 47.6465 17.2006 54.5771 23.1248 59.7114C22.8263 59.8804 22.5489 60.0286 22.3149 60.1555C19.3526 61.6132 8.05811 67.4658 5.24523 73.6568C2.04891 80.6716 5.75708 85.7009 8.20756 86.3765C15.8154 88.4686 23.6362 84.7076 27.8342 78.4953C32.0323 72.2834 31.5209 64.2119 29.5818 60.5144C29.5604 60.4722 29.5393 60.4296 29.4964 60.3875C30.2637 59.9439 31.052 59.479 31.8194 59.0354C33.2296 58.2088 34.6578 57.4126 36.1029 56.6474C35.3781 58.6126 34.8452 60.958 34.5897 64.3387C34.2698 68.3113 35.9105 73.4665 38.063 75.4947C39.0223 76.3828 40.1515 76.4037 40.8763 76.4037C43.3908 76.4037 44.5205 74.3329 45.7778 71.8819C47.3119 68.8818 48.6971 65.3954 48.6971 65.3954C48.6971 65.3954 46.971 74.8191 51.6595 74.8191C53.3641 74.8191 55.0902 72.6214 55.8575 71.5017V71.5226C55.8575 71.5226 55.9 71.4592 55.9855 71.3114C56.156 71.0368 56.2624 70.8674 56.2624 70.8674V70.8257C56.9443 69.6421 58.4789 66.9587 60.7589 62.5004C63.6998 56.7534 66.5342 49.5696 66.5342 49.5696C66.5342 49.5696 66.7901 51.3232 67.6634 54.239C68.1753 55.9505 69.2401 57.831 70.0929 59.648C69.411 60.5991 68.9846 61.127 68.9846 61.127L69.0061 61.1483C68.4518 61.8665 67.8554 62.6481 67.1945 63.4094C64.8716 66.1558 62.1016 69.3045 61.7178 70.2126C61.2699 71.2901 61.3768 72.0722 62.2296 72.7062C62.8475 73.1711 63.9553 73.234 65.085 73.1711C67.1735 73.0229 68.6437 72.5158 69.3681 72.1991C70.4978 71.7976 71.819 71.1846 73.0548 70.276C75.3352 68.6067 76.72 66.2192 76.5925 63.0714C76.5285 61.3386 75.9531 59.6059 75.2498 57.9787C75.4632 57.6833 75.6547 57.3874 75.8681 57.0915C79.4693 51.8724 82.2612 46.1462 82.2612 46.1462C82.2612 46.1462 82.5171 47.8998 83.3905 50.8161C83.8168 52.2951 84.6907 53.901 85.4575 55.4643C82.0693 58.1903 79.9807 61.3594 79.2349 63.4302C77.8926 67.2759 78.9365 69.0082 80.9185 69.4097C81.8133 69.6 83.092 69.1772 84.0298 68.7757C85.2231 68.3956 86.6297 67.7408 87.9724 66.7684C90.2529 65.0995 92.4474 62.775 92.3195 59.6272C92.2555 58.1903 91.8721 56.7743 91.3392 55.4009C94.2161 54.2182 97.9242 53.563 102.655 54.1122C112.799 55.2953 114.802 61.5706 114.418 64.2123C114.035 66.8531 111.904 68.29 111.201 68.7336C110.497 69.1777 110.263 69.3254 110.327 69.6421C110.412 70.107 110.753 70.0862 111.35 70.0014C112.181 69.8537 116.678 67.8672 116.869 63.0075C117.189 56.7956 111.222 50.0132 100.673 50.0766ZM22.4214 76.2346C19.0542 79.8687 14.3662 81.2421 12.3417 80.0803C10.1681 78.8333 11.0204 73.4665 15.1545 69.6213C17.669 67.2759 20.9083 65.0991 23.0608 63.7683C23.5507 63.4724 24.2755 63.0501 25.1493 62.5217C25.2983 62.437 25.3838 62.3948 25.3838 62.3948L25.8952 62.0776C27.4078 67.5713 25.9591 72.4103 22.4214 76.2346ZM46.9285 59.7114C45.7563 62.543 43.3058 69.7903 41.8141 69.3888C40.5354 69.0508 39.7466 63.5571 41.5582 58.1269C42.4745 55.4009 44.4136 52.147 45.5433 50.8796C47.3759 48.8509 49.4005 48.1744 49.8904 48.9991C50.5087 50.0766 47.6529 57.9365 46.9285 59.7114ZM67.152 69.3041C66.6617 69.5578 66.1932 69.7269 65.9798 69.6C65.8308 69.5153 66.1932 69.1772 66.1932 69.1772C66.1932 69.1772 68.7292 66.473 69.7305 65.2473C70.3063 64.5291 70.9877 63.684 71.7125 62.7329V63.0075C71.7125 66.2405 68.5583 68.4169 67.1516 69.3041H67.152ZM82.7511 65.7756C82.3887 65.5219 82.4527 64.6768 83.6674 62.0355C84.1363 61.0001 85.2441 59.2678 87.1411 57.5985C87.3541 58.2746 87.5035 58.9298 87.4821 59.5424C87.4606 63.6205 84.5202 65.1417 82.7511 65.7756Z" fill="#CD6799"/>
                </g>
                <defs>
                    <clipPath id="clip0_2_5689">
                        <rect width="117" height="87" fill="white"/>
                    </clipPath>
                </defs>
            </svg>


        </g>
    </g>
    <g id="ReactLogo">
        <svg width="113" height="101" viewBox="0 0 113 101" fill="none" xmlns="http://www.w3.org/2000/svg">
            <g clip-path="url(#clip0_2_5687)">
                <path d="M92.9055 32.7027C91.703 32.2887 90.4903 31.9051 89.2686 31.5523C89.4738 30.7106 89.6627 29.8792 89.8304 29.0623C92.5837 15.6483 90.7838 4.84178 84.6359 1.28375C78.7415 -2.12722 69.1015 1.42949 59.3658 9.93342C58.4063 10.773 57.4681 11.6368 56.552 12.524C55.9388 11.934 55.3148 11.3556 54.6802 10.7888C44.4766 1.69616 34.2492 -2.13608 28.108 1.43215C22.2188 4.85374 20.4749 15.0127 22.9537 27.7254C23.2003 28.9844 23.4787 30.237 23.7887 31.4819C22.341 31.8947 20.9441 32.3342 19.6072 32.8019C7.64431 36.9881 0.00463867 43.5483 0.00463867 50.3529C0.00463867 57.3808 8.20617 64.43 20.666 68.7043C21.6762 69.0495 22.6947 69.3692 23.7208 69.6634C23.3875 71.0042 23.0917 72.354 22.8336 73.7114C20.4705 86.2035 22.3159 96.1223 28.1892 99.5222C34.2554 103.033 44.4369 99.4247 54.3505 90.7268C55.1544 90.0196 55.9406 89.2925 56.7083 88.546C57.7003 89.5066 58.7188 90.4393 59.7626 91.343C69.3659 99.6365 78.85 102.985 84.7176 99.5762C90.7781 96.055 92.7479 85.3995 90.1906 72.4356C89.9891 71.42 89.7632 70.4094 89.5131 69.4047C90.2281 69.1921 90.9299 68.9732 91.614 68.7455C104.567 64.4384 112.995 57.4747 112.995 50.3529C112.995 43.5234 105.109 36.919 92.9055 32.7027ZM90.0961 64.1474C89.4782 64.3525 88.8444 64.5505 88.1982 64.7432C86.7682 60.1995 84.8385 55.3684 82.4768 50.3764C84.7304 45.5036 86.5859 40.734 87.9758 36.22C89.1317 36.5558 90.2533 36.9097 91.3346 37.2832C101.791 40.8961 108.168 46.2372 108.168 50.3529C108.168 54.7367 101.28 60.4277 90.0961 64.1474ZM85.4556 73.3765C86.5864 79.1087 86.7475 84.2916 85.9985 88.3435C85.3258 91.9844 83.9726 94.4115 82.2989 95.3839C78.7384 97.4526 71.1234 94.7637 62.9109 87.6706C61.94 86.8305 60.9926 85.9634 60.0698 85.0703C63.2538 81.5756 66.4356 77.5131 69.5411 73.0008C75.0035 72.5144 80.164 71.7188 84.8438 70.6331C85.0693 71.5426 85.2732 72.4573 85.4556 73.3765ZM38.5256 95.0264C35.0467 96.2592 32.2758 96.2946 30.6008 95.3254C27.0368 93.2624 25.5551 85.298 27.5761 74.6151C27.8164 73.3527 28.0914 72.0972 28.401 70.8502C33.0292 71.8779 38.1522 72.6168 43.6274 73.0624C46.7541 77.4776 50.0277 81.5358 53.327 85.0894C52.6258 85.7703 51.9081 86.4338 51.1744 87.0793C46.7903 90.9252 42.3973 93.654 38.5256 95.0264ZM22.2276 64.1204C16.718 62.2302 12.1679 59.7738 9.04919 57.0933C6.24649 54.6848 4.8319 52.2932 4.8319 50.3529C4.8319 46.2234 10.9656 40.9564 21.1961 37.3766C22.4377 36.9425 23.7371 36.5327 25.0855 36.1482C26.4996 40.7641 28.3543 45.5904 30.5924 50.4707C28.3251 55.4233 26.444 60.3267 25.0162 64.997C24.0796 64.7278 23.1498 64.4355 22.2276 64.1204ZM27.6909 26.7947C25.5674 15.9031 26.9776 7.68706 30.5267 5.62497C34.3066 3.42867 42.6652 6.56011 51.4754 14.4115C52.0499 14.9247 52.6151 15.4482 53.1707 15.9819C49.8878 19.52 46.6442 23.548 43.5453 27.9371C38.2312 28.4315 33.1444 29.2253 28.4677 30.2889C28.1795 29.131 27.9205 27.9661 27.6909 26.7951V26.7947ZM76.43 38.8739C75.3254 36.9589 74.1797 35.0679 72.9939 33.2024C76.599 33.66 80.0532 34.2673 83.2968 35.0098C82.3232 38.1425 81.1094 41.4175 79.6807 44.7753C78.6364 42.7867 77.5526 40.8191 76.43 38.8739ZM56.5542 19.4443C58.7805 21.8652 61.0103 24.5678 63.2035 27.5003C58.7545 27.2894 54.298 27.2886 49.849 27.4977C52.0443 24.5922 54.2931 21.8931 56.5542 19.4443ZM36.5509 38.9071C35.4424 40.8367 34.3788 42.792 33.3612 44.7713C31.9558 41.4255 30.7531 38.1355 29.7711 34.9584C32.9948 34.2346 36.4326 33.6427 40.0148 33.1935C38.8158 35.0704 37.6608 36.9754 36.5509 38.9067V38.9071ZM40.1176 67.8569C36.4168 67.4423 32.9273 66.881 29.7044 66.1767C30.7019 62.9429 31.9311 59.5829 33.3669 56.1653C34.3886 58.1461 35.4566 60.1026 36.5699 62.033C37.7148 64.0176 38.9003 65.9614 40.1176 67.8569ZM56.6875 81.6027C54.3995 79.1255 52.1176 76.3848 49.8891 73.4372C52.0527 73.5222 54.2582 73.5656 56.5 73.5656C58.803 73.5656 61.0796 73.5138 63.3204 73.4137C61.1202 76.4145 58.8988 79.1592 56.6875 81.6027ZM79.7262 55.9907C81.2365 59.446 82.5094 62.7883 83.5202 65.9667C80.2443 66.7171 76.7072 67.3214 72.9803 67.7701C74.1745 65.8699 75.331 63.9461 76.449 61.9998C77.5857 60.0214 78.6783 58.0179 79.7262 55.9907ZM72.2679 59.5794C70.5563 62.5634 68.7486 65.4909 66.8474 68.357C63.4037 68.6018 59.9523 68.7234 56.5 68.7216C52.9836 68.7216 49.5634 68.6118 46.2699 68.3974C44.3191 65.5378 42.4769 62.6053 40.747 59.6059H40.7475C39.0258 56.6225 37.4176 53.5745 35.9264 50.4685C37.4138 47.3618 39.0171 44.3124 40.7329 41.3267L40.7325 41.3271C42.4476 38.3407 44.2752 35.4206 46.2112 32.5734C49.5713 32.3182 53.0171 32.1853 56.4995 32.1853H56.5C59.9983 32.1853 63.4484 32.3195 66.8077 32.5765C68.7242 35.4195 70.5401 38.3295 72.252 41.301C73.9735 44.2801 75.598 47.3147 77.123 50.3999C75.6137 53.5166 73.9943 56.5783 72.2679 59.5794ZM82.2252 5.48056C86.0086 7.67067 87.4801 16.5024 85.1029 28.0842C84.9511 28.8231 84.7807 29.5757 84.5953 30.339C79.9071 29.2528 74.8168 28.4452 69.4873 27.9433C66.3827 23.506 63.1655 19.4717 59.936 15.9792C60.7824 15.1604 61.6489 14.3628 62.5348 13.5871C70.8767 6.30141 78.673 3.42468 82.2252 5.48056ZM56.5 40.2263C62.0723 40.2263 66.5897 44.7603 66.5897 50.3529C66.5897 55.9456 62.0723 60.4795 56.5 60.4795C50.9277 60.4795 46.4102 55.9456 46.4102 50.3529C46.4102 44.7603 50.9277 40.2263 56.5 40.2263Z"
                      fill="#00D8FF"/>
            </g>
            <defs>
                <clipPath id="clip0_2_5687">
                    <rect width="113" height="101" fill="white"/>
                </clipPath>
            </defs>
        </svg>
    </g>
    <g id="CSSLogo">
        <svg width="120" height="119" viewBox="0 0 120 119" fill="none" xmlns="http://www.w3.org/2000/svg">
            <path d="M22.1325 101.154L13.71 7.4375H106.29L97.8562 101.139L59.9437 111.562L22.1325 101.154Z" fill="#1572B6"/>
            <path d="M60 103.597L90.6375 95.174L97.845 15.1019H60V103.597Z" fill="#33A9DC"/>
            <path d="M60 49.054H75.3375L76.395 37.2842H60V25.7896H89.0625L88.785 28.8724L85.9387 60.5487H60V49.054Z" fill="white"/>
            <path d="M60.0711 78.9045L60.0186 78.9193L47.1112 75.4609L46.2862 66.2942H34.6499L36.2737 84.3413L60.0149 90.8788L60.0711 90.864V78.9045Z" fill="#EBEBEB"/>
            <path d="M74.3513 60.0615L72.9563 75.4534L60.03 78.9119V90.8714L83.79 84.3412L83.9663 82.4001L85.98 60.0615H74.3513Z" fill="white"/>
            <path d="M60.0411 25.7896V37.2842H32.0436L31.8111 34.6997L31.2824 28.8724L31.0049 25.7896H60.0411ZM59.9999 49.054V60.5487H47.2536L47.0211 57.9642L46.4961 52.1369L46.2186 49.054H59.9999Z" fill="#EBEBEB"/>
        </svg>
    </g>
    <g id="HTMLLogo">
        <svg width="120" height="120" viewBox="0 0 120 120" fill="none" xmlns="http://www.w3.org/2000/svg">
            <path d="M22.1323 102.004L13.7061 7.5H106.294L97.856 101.989L59.9436 112.5L22.1323 102.004Z" fill="#E44F26"/>
            <path d="M60 104.468L90.6375 95.9738L97.845 15.2288H60V104.468Z" fill="#F1662A"/>
            <path d="M60 50.2762H44.6625L43.605 38.4075H60V26.8162H30.9375L31.215 29.9287L34.0613 61.8675H60V50.2762ZM60 80.3775L59.9475 80.3925L47.04 76.9087L46.215 67.665H34.5787L36.2025 85.86L59.9475 92.4525L60 92.4375V80.3775Z" fill="#EBEBEB"/>
            <path d="M59.959 50.2762V61.8675H74.2315L72.889 76.9012L59.959 80.3887V92.4487L83.7227 85.86L83.8952 83.9025L86.6177 53.3887L86.9027 50.2762H59.959ZM59.959 26.8162V38.4075H87.9565L88.189 35.805L88.7177 29.9287L88.9952 26.8162H59.959Z" fill="white"/>
        </svg>
    </g>
    <g id="RTKLogo">
        <svg width="105" height="100" viewBox="0 0 105 100" fill="none" xmlns="http://www.w3.org/2000/svg">
            <path d="M72.6971 69.5627C76.5688 69.1619 79.5061 65.8242 79.3725 61.8184C79.2393 57.8131 75.9012 54.6086 71.8959 54.6086H71.6291C67.4897 54.7422 64.2856 58.2135 64.4193 62.3525C64.5529 64.3553 65.3537 66.091 66.5553 67.2926C62.016 76.2385 55.0734 82.7807 44.6594 88.2549C37.5832 91.9934 30.2402 93.3287 22.8971 92.3943C16.8889 91.593 12.216 88.923 9.27827 84.5164C5.00614 77.9742 4.60573 70.8975 8.21065 63.8213C10.7475 58.7475 14.7525 55.009 17.2893 53.1398C16.7553 51.4041 15.9541 48.4668 15.5537 46.3307C-3.80574 60.35 -1.80287 79.3094 4.07172 88.2549C8.47745 94.9311 17.4229 99.0701 27.3029 99.0701C29.9729 99.0701 32.643 98.8029 35.3135 98.1357C52.4033 94.7975 65.3541 84.65 72.6971 69.5627ZM96.1955 53.0066C86.0483 41.1234 71.0951 34.5811 54.0053 34.5811H51.8693C50.6676 32.1779 48.1307 30.5754 45.327 30.5754H45.0598C40.9213 30.709 37.7172 34.1803 37.8504 38.3197C37.984 42.325 41.3217 45.5295 45.327 45.5295H45.5938C48.5311 45.3959 51.068 43.5266 52.1361 40.9898H54.5393C64.6865 40.9898 74.2992 43.927 82.9779 49.6684C89.6533 54.0746 94.4598 59.816 97.1299 66.7586C99.3996 72.3664 99.266 77.8406 96.8627 82.5139C93.1246 89.5902 86.8496 93.4623 78.5717 93.4623C73.2311 93.4623 68.1578 91.8598 65.4873 90.6582C64.0188 91.9934 61.3484 94.1295 59.4791 95.4652C65.2205 98.1352 71.0951 99.6041 76.7025 99.6041C89.5197 99.6041 98.9992 92.5275 102.604 85.4512C106.476 77.707 106.209 64.3553 96.1955 53.0066ZM28.3709 71.832C28.5045 75.8377 31.8422 79.0418 35.8475 79.0418H36.1147C40.2537 78.9086 43.4578 75.4369 43.3242 71.2979C43.191 67.2922 39.8529 64.0881 35.8475 64.0881H35.5807C35.3135 64.0881 34.9127 64.0881 34.6463 64.2213C29.1721 55.1422 26.9025 45.2623 27.7037 34.5807C28.2373 26.5697 30.9078 19.6266 35.5807 13.8852C39.4525 8.94508 46.9291 6.5418 52.0029 6.40861C66.1549 6.14139 72.1627 23.7656 72.5635 30.8422C74.2992 31.2426 77.2365 32.1775 79.2393 32.8451C77.6369 11.2156 64.2856 0 51.4688 0C39.4524 0 28.3709 8.67869 23.9647 21.4963C17.8234 38.5865 21.8287 55.009 29.3053 67.9602C28.6381 68.8947 28.2373 70.3635 28.3709 71.8324V71.832Z" fill="#764ABC"/>
        </svg>
    </g>
    <g id="TSLogo">
        <svg width="100" height="100" viewBox="0 0 120 120" fill="none" xmlns="http://www.w3.org/2000/svg">
            <path d="M0 60V120H60H120V60V0H60H0V60Z" fill="#007ACC"/>
            <path d="M26.5374 60.3979L26.4993 65.3122H34.3088H42.1184L42.1184 87.5026V109.693H47.6422H53.166V87.5026L53.166 65.3122H60.9755H68.785V60.4931C68.785 57.8264 68.7279 55.5979 68.6517 55.5407C68.5946 55.4645 59.0898 55.4264 47.566 55.4455L26.5946 55.5026L26.5374 60.3979Z" fill="white"/>
            <path d="M96.8264 55.3636C99.874 56.1255 102.198 57.4779 104.331 59.6874C105.436 60.8684 107.074 63.0208 107.207 63.535C107.245 63.6874 102.026 67.1922 98.8644 69.1541C98.7502 69.2303 98.293 68.7351 97.7787 67.9731C96.2359 65.7255 94.6168 64.7541 92.1406 64.5827C88.5025 64.335 86.1597 66.2398 86.1787 69.4208C86.1787 70.3541 86.3121 70.9065 86.693 71.6684C87.493 73.3255 88.9787 74.316 93.6454 76.3351C102.236 80.0303 105.912 82.4684 108.198 85.935C110.75 89.8017 111.322 95.9731 109.588 100.564C107.683 105.554 102.96 108.945 96.3121 110.068C94.2549 110.43 89.3787 110.373 87.1692 109.973C82.3502 109.116 77.7787 106.735 74.9597 103.611C73.8549 102.392 71.7025 99.2112 71.8359 98.9827C71.893 98.9065 72.3883 98.6017 72.9406 98.2779C73.474 97.9731 75.493 96.8112 77.3978 95.7065L80.8454 93.7065L81.5692 94.7731C82.5787 96.316 84.7883 98.4303 86.1216 99.135C89.9502 101.154 95.2073 100.868 97.7978 98.5446C98.9025 97.535 99.3597 96.4874 99.3597 94.9446C99.3597 93.5541 99.1883 92.9446 98.4644 91.897C97.5311 90.5636 95.6263 89.4398 90.2168 87.097C84.0263 84.4303 81.3597 82.7731 78.9216 80.1446C77.5121 78.6208 76.1787 76.1827 75.6264 74.1446C75.1692 72.4493 75.0549 68.2017 75.4168 66.4874C76.693 60.5065 81.2073 56.335 87.7216 55.097C89.8359 54.697 94.7502 54.8493 96.8264 55.3636Z" fill="white"/>
        </svg>


    </g>

</svg>



